<?xml version="1.0" encoding="UTF-8"?>
<svg version="1.1" xmlns="http://www.w3.org/2000/svg" width="1536" height="1024">
<path d="M0 0 C506.88 0 1013.76 0 1536 0 C1536 337.92 1536 675.84 1536 1024 C1029.12 1024 522.24 1024 0 1024 C0 686.08 0 348.16 0 0 Z " fill="#FDFDFD" transform="translate(0,0)"/>
<path d="M0 0 C1.15113281 0.60199219 2.30226563 1.20398438 3.48828125 1.82421875 C8.29880863 4.29916853 13.11316285 6.50563472 18.1640625 8.44140625 C21.31411088 9.72009256 24.35753569 11.17240622 27.42578125 12.63671875 C53.59713867 25.01383531 81.15860784 35.87171523 108.80078125 44.51171875 C110.39986328 45.0221875 110.39986328 45.0221875 112.03125 45.54296875 C119.57746834 47.91491064 127.18660376 50.06866281 134.7956543 52.22827148 C139.66033087 53.60954572 144.51676621 55.01285192 149.36254883 56.45898438 C159.11845236 59.36809299 168.93763399 61.9920938 178.80078125 64.51171875 C179.79722656 64.76630859 180.79367187 65.02089844 181.8203125 65.28320312 C185.00022079 66.09288384 188.18143293 66.8971978 191.36328125 67.69921875 C192.84356812 68.07421509 192.84356812 68.07421509 194.35375977 68.45678711 C203.99979926 70.87094677 213.72605865 72.72157715 223.51367188 74.45507812 C228.69029933 75.40123683 228.69029933 75.40123683 229.80078125 76.51171875 C232.40233712 77.06489248 234.99625178 77.56593413 237.61328125 78.03515625 C238.41499756 78.1819986 239.21671387 78.32884094 240.04272461 78.48013306 C242.62808703 78.95268013 245.21441349 79.41970893 247.80078125 79.88671875 C249.48313667 80.19366119 251.1654291 80.5009491 252.84765625 80.80859375 C257.02350015 81.57091871 261.20079547 82.32490501 265.37878418 83.07537842 C267.71832789 83.49686418 270.0569583 83.92313549 272.39550781 84.35009766 C280.75489757 85.8655507 289.10935377 87.15929031 297.55078125 88.13671875 C299.58743841 88.37722851 301.62390541 88.61935537 303.66015625 88.86328125 C304.96678223 89.01531006 304.96678223 89.01531006 306.29980469 89.17041016 C308.82788854 89.51541808 311.30155349 90.00128375 313.80078125 90.51171875 C314.14983313 126.63027784 314.11142816 162.50681663 310.80078125 198.51171875 C310.72345764 199.36554138 310.64613403 200.21936401 310.56646729 201.09906006 C308.72378247 221.36001135 306.40515426 241.48030905 302.80078125 261.51171875 C302.59227539 262.70297363 302.38376953 263.89422852 302.16894531 265.12158203 C298.7036189 284.85483049 294.42338808 304.32781243 289.69384766 323.79443359 C288.59518808 328.36747643 287.5495122 332.95160514 286.51831055 337.5402832 C286.28152588 338.52085693 286.04474121 339.50143066 285.80078125 340.51171875 C285.58333252 341.72335693 285.36588379 342.93499512 285.1418457 344.18334961 C283.80078125 347.51171875 283.80078125 347.51171875 280.79492188 349.36035156 C279.52600932 349.84025918 278.24549273 350.29020577 276.95703125 350.71484375 C276.27330444 350.96417664 275.58957764 351.21350952 274.88513184 351.47039795 C272.69870621 352.26039292 270.50094724 353.01096036 268.30078125 353.76171875 C266.85197589 354.28007487 265.4040464 354.80088597 263.95703125 355.32421875 C243.92123173 362.51171875 243.92123173 362.51171875 238.80078125 362.51171875 C238.48367188 361.63773437 238.1665625 360.76375 237.83984375 359.86328125 C228.82846454 336.1150609 215.45441558 314.57075899 193.80078125 300.51171875 C194.60515625 299.64546875 195.40953125 298.77921875 196.23828125 297.88671875 C205.52306136 286.99580369 212.3250765 274.41453775 215.80078125 260.51171875 C216.46078125 260.84171875 217.12078125 261.17171875 217.80078125 261.51171875 C218.13078125 269.43171875 218.46078125 277.35171875 218.80078125 285.51171875 C220.12078125 283.86171875 221.44078125 282.21171875 222.80078125 280.51171875 C223.79078125 280.51171875 224.78078125 280.51171875 225.80078125 280.51171875 C226.76817633 278.51608613 227.72424169 276.51495993 228.67578125 274.51171875 C229.47628906 272.84109375 229.47628906 272.84109375 230.29296875 271.13671875 C235.78021789 257.94457575 235.9925948 240.83212927 230.80078125 227.51171875 C224.71625673 213.0158917 216.11591084 200.51343994 205.20385742 189.24121094 C201.80078125 185.70442708 201.80078125 185.70442708 201.80078125 183.51171875 C206.53029388 184.93565804 210.78431397 186.91773864 215.11328125 189.26171875 C215.77118652 189.61226318 216.4290918 189.96280762 217.10693359 190.32397461 C221.61318902 192.76094071 225.81160238 195.4397632 229.87109375 198.578125 C231.83938091 199.72516393 231.83938091 199.72516393 234.4296875 199.34765625 C237.12329814 198.67704458 237.12329814 198.67704458 238.61328125 195.57421875 C241.33352234 187.89813613 239.95611897 180.84936106 237.359375 173.34765625 C233.05393701 165.51370142 227.25373227 160.99587839 219.36328125 157.07421875 C218.45876221 156.61321777 217.55424316 156.1522168 216.62231445 155.67724609 C206.86059289 150.83345936 196.74300428 147.00564987 186.45703125 143.43701172 C184.18553228 142.64574507 181.93024543 141.82244263 179.67578125 140.984375 C153.76795864 131.9550597 126.02578866 130.7687769 99.80078125 138.51171875 C99.33671875 136.62453125 99.33671875 136.62453125 98.86328125 134.69921875 C98.11027971 132.42267387 98.11027971 132.42267387 96.80078125 130.51171875 C94.92623299 129.6953197 94.92623299 129.6953197 92.73828125 129.32421875 C87.81055512 128.11222139 85.69352241 125.30433218 82.86328125 121.32421875 C71.99532611 106.24245626 55.69549476 99.29112638 37.80078125 95.51171875 C32.58290457 95.0317599 27.40894384 95.02779419 22.17578125 95.13671875 C20.75806203 95.15385347 19.34033721 95.17053087 17.92260742 95.18676758 C-5.75635468 95.53527941 -28.48385472 98.55591539 -50.19921875 108.51171875 C-50.8629248 108.81480957 -51.52663086 109.11790039 -52.21044922 109.43017578 C-78.62989264 121.63760947 -95.04608212 140.49194841 -107.19921875 166.51171875 C-107.52921875 167.17171875 -107.85921875 167.83171875 -108.19921875 168.51171875 C-108.85921875 168.51171875 -109.51921875 168.51171875 -110.19921875 168.51171875 C-110.33497314 167.93728027 -110.47072754 167.3628418 -110.6105957 166.77099609 C-111.23669105 164.1410247 -111.87410187 161.51391955 -112.51171875 158.88671875 C-112.72505859 157.98308594 -112.93839844 157.07945312 -113.15820312 156.1484375 C-114.95525687 147.79052715 -114.95525687 147.79052715 -119.890625 141.12109375 C-134.45966819 134.42967517 -149.99063078 135.44675054 -165.19921875 139.51171875 C-166.78476562 139.929375 -166.78476562 139.929375 -168.40234375 140.35546875 C-187.27521454 145.74771755 -204.20736848 154.90151693 -219.19921875 167.51171875 C-220.92770065 168.84593967 -222.65687134 170.17926872 -224.38671875 171.51171875 C-233.65404868 178.95738944 -241.57447963 189.04345427 -247.19921875 199.51171875 C-247.19921875 200.50171875 -247.19921875 201.49171875 -247.19921875 202.51171875 C-246.27882813 201.79886719 -245.3584375 201.08601562 -244.41015625 200.3515625 C-236.22402097 194.11720402 -227.92807417 188.11300777 -218.19921875 184.51171875 C-217.20921875 184.84171875 -216.21921875 185.17171875 -215.19921875 185.51171875 C-215.96105469 186.29933594 -216.72289062 187.08695313 -217.5078125 187.8984375 C-237.70693725 209.0733495 -249.95179743 232.6946464 -249.47265625 262.4609375 C-248.68663319 282.89364583 -239.62836892 302.37927706 -225.13671875 316.63671875 C-224.56824219 317.15492188 -223.99976563 317.673125 -223.4140625 318.20703125 C-222.19921875 319.51171875 -222.19921875 319.51171875 -222.19921875 321.51171875 C-223.77208559 322.92610281 -225.41061871 324.26776276 -227.07421875 325.57421875 C-251.90345147 345.57730905 -267.83290194 371.0819798 -277.19921875 401.51171875 C-279.9712132 400.12572153 -279.99779136 398.75829602 -280.98828125 395.8515625 C-282.50832178 391.48547373 -284.08228317 387.15056345 -285.72265625 382.828125 C-300.06728598 344.19784481 -309.94373676 304.19772811 -316.84039307 263.60827637 C-317.36473842 260.5446154 -317.91389868 257.4854597 -318.4609375 254.42578125 C-319.45224655 248.79880038 -320.35834147 243.16304871 -321.19921875 237.51171875 C-321.32603027 236.67012207 -321.4528418 235.82852539 -321.58349609 234.96142578 C-323.78569859 219.96194824 -325.02663359 204.8602888 -326.32421875 189.76171875 C-326.4106665 188.76332977 -326.49711426 187.7649408 -326.58618164 186.73629761 C-328.59651037 163.35566567 -329.33982711 140.23254306 -329.26171875 116.76171875 C-329.25668983 114.10677168 -329.2521294 111.45182369 -329.24804688 108.796875 C-329.23716056 102.36846887 -329.22053454 95.94009833 -329.19921875 89.51171875 C-304.54463111 85.5384044 -304.54463111 85.5384044 -293.97583008 83.99194336 C-281.45403963 82.14958516 -269.11070333 79.74373592 -256.74511719 77.05810547 C-253.38268366 76.33647848 -250.01191519 75.67111143 -246.63671875 75.01171875 C-237.39751892 73.17837977 -228.20093964 71.14780544 -219.00146484 69.12597656 C-216.41862199 68.55981237 -213.83456728 67.99963494 -211.25 67.44140625 C-209.73303298 67.11086029 -208.21610352 66.78014192 -206.69921875 66.44921875 C-205.41015625 66.16949219 -204.12109375 65.88976562 -202.79296875 65.6015625 C-190.51916173 62.77786431 -178.40260409 59.20251546 -166.28393555 55.78491211 C-163.76873877 55.0761968 -161.25255882 54.37105 -158.73632812 53.66601562 C-143.41659801 49.35861488 -128.28174115 44.58835495 -113.19921875 39.51171875 C-112.53913818 39.29338379 -111.87905762 39.07504883 -111.19897461 38.85009766 C-89.67863666 31.72945135 -68.617704 23.64645735 -47.68969727 14.95898438 C-45.47390514 14.04024508 -43.25588558 13.12684522 -41.03491211 12.22070312 C-35.94221441 10.1323277 -30.92546176 7.94391051 -25.953125 5.58203125 C-24.93154297 5.09734375 -23.90996094 4.61265625 -22.85742188 4.11328125 C-20.76221961 3.11392926 -18.67116097 2.10585104 -16.58398438 1.08984375 C-15.57142578 0.61289063 -14.55886719 0.1359375 -13.515625 -0.35546875 C-12.16126343 -1.00684814 -12.16126343 -1.00684814 -10.77954102 -1.67138672 C-6.55915614 -3.00750251 -3.91193045 -1.81983578 0 0 Z " fill="#0FB2EE" transform="translate(777.19921875,142.48828125)"/>
<path d="M0 0 C1.10512912 3.31538736 0.66195354 4.67881927 -0.30653381 7.9311676 C-3.39371542 18.30671321 -3.67155146 28.30449244 -3.5625 39.0625 C-3.55824005 39.96252747 -3.5539801 40.86255493 -3.54959106 41.78985596 C-3.45595549 56.02720025 -2.39635485 69.36964511 2 83 C2.37753418 84.22154785 2.37753418 84.22154785 2.76269531 85.46777344 C8.14128761 102.5236617 16.55735499 118.50774659 27 133 C27.69609375 133.98097656 28.3921875 134.96195313 29.109375 135.97265625 C34.56423696 143.46825557 40.57186211 150.33725853 47 157 C47.89525391 157.928125 47.89525391 157.928125 48.80859375 158.875 C55.82148103 166.10300652 62.74504144 173.1834292 71 179 C72.24277591 179.9080494 73.48489868 180.81699302 74.7265625 181.7265625 C125.6039664 218.67154969 187.5192762 239.92979835 250 245 C250 245.66 250 246.32 250 247 C261.30884557 247.02313452 272.61768553 247.04092077 283.92654991 247.05181217 C289.17727873 247.05703856 294.42799141 247.06413181 299.67871094 247.07543945 C304.74261255 247.08627696 309.8064986 247.09227868 314.87041092 247.09487724 C316.80577464 247.09672993 318.74113748 247.10034756 320.6764946 247.10573006 C323.37988907 247.11295192 326.08321859 247.11399045 328.78662109 247.11352539 C329.59294479 247.11712067 330.39926849 247.12071594 331.23002625 247.12442017 C335.24518037 247.20948643 335.24518037 247.20948643 339 246 C341.51535015 245.65712483 344.01905941 245.36059793 346.54296875 245.09765625 C347.30362137 245.01503036 348.06427399 244.93240448 348.84797668 244.84727478 C351.29410867 244.58204922 353.74074837 244.32194191 356.1875 244.0625 C379.77172368 241.57954757 379.77172368 241.57954757 403.0625 237.1875 C404.22297852 236.92251709 405.38345703 236.65753418 406.57910156 236.38452148 C408.93686091 235.84609863 411.29413031 235.3055253 413.65087891 234.76269531 C416.70444894 234.06730584 419.76194086 233.3979737 422.82421875 232.7421875 C435.27760553 230.05207868 447.39057858 226.62181676 459.53417969 222.77392578 C461.65543896 222.1081444 463.78048839 221.46473282 465.9140625 220.83984375 C470.88493203 219.37468292 475.68441799 217.77384572 480.44921875 215.73046875 C486.17036993 213.31869282 491.94942333 211.09817766 497.75683594 208.90380859 C527.29192784 197.73028053 556.6441715 184.57055233 583 167 C577.02672473 161.46019638 570.85247459 156.58600009 564.125 152 C562.35765415 150.77794915 560.59072342 149.55529773 558.82421875 148.33203125 C557.98810059 147.75533691 557.15198242 147.17864258 556.29052734 146.58447266 C534.20414084 131.30621126 534.20414084 131.30621126 530 125 C531.02955811 124.89977539 532.05911621 124.79955078 533.11987305 124.69628906 C563.163919 121.75683209 592.8273981 118.60728634 622.25976562 111.64013672 C625.55923627 110.86935874 628.86773688 110.1775845 632.1875 109.5 C638.63451014 108.12551053 645.03615164 106.57130522 651.4375 105 C652.46963623 104.75056641 653.50177246 104.50113281 654.56518555 104.24414062 C659.98453698 102.89692725 664.87139734 101.23225361 670 99 C671.97443081 98.36881228 673.9558432 97.75930559 675.94140625 97.1640625 C683.70238616 94.82501556 691.32096945 92.13974166 698.9375 89.375 C699.65190247 89.11665375 700.36630493 88.8583075 701.10235596 88.59213257 C713.06643457 84.24991289 724.7041436 79.39566459 736.16357422 73.84106445 C738 73 738 73 741 72 C737.49975303 136.10978666 709.82514192 203.10800615 663 248 C660.57651422 250.40397301 658.1726258 252.81903628 655.81640625 255.2890625 C649.06918885 262.28184587 641.74583918 268.16290033 634 274 C633.32582031 274.51369141 632.65164063 275.02738281 631.95703125 275.55664062 C629.91572803 277.10963961 627.86600472 278.65068195 625.8125 280.1875 C625.17675049 280.66952881 624.54100098 281.15155762 623.88598633 281.64819336 C619.34750378 285 619.34750378 285 616 285 C616.23710693 284.35039307 616.47421387 283.70078613 616.71850586 283.03149414 C617.80180511 280.04545314 618.86971538 277.05412221 619.9375 274.0625 C620.31068359 273.04091797 620.68386719 272.01933594 621.06835938 270.96679688 C624.40362566 261.56194691 625.1724144 253.15960965 625.125 243.25 C625.12886719 242.42628906 625.13273438 241.60257813 625.13671875 240.75390625 C625.13019828 236.70469188 625.01167063 232.95033294 624 229 C623.18660156 229.54527344 622.37320313 230.09054687 621.53515625 230.65234375 C583.06943704 256.10978058 537.46062702 272.43187447 493 284 C491.28876953 284.49693359 491.28876953 284.49693359 489.54296875 285.00390625 C479.0732257 288.00029736 468.43029238 289.8682388 457.71875 291.78125 C453.81015449 292.47999333 449.91524187 293.20678738 446.03125 294.03125 C418.53596843 299.81623414 390.07596619 302.77502565 362 303 C360.83549316 303.01901367 359.67098633 303.03802734 358.47119141 303.05761719 C326.00517524 303.5845367 293.05888689 302.41164971 261 297 C259.32292863 296.73169603 257.64584413 296.46347415 255.96875 296.1953125 C229.21212109 291.8241685 203.01275908 284.89741518 177.3125 276.3125 C176.14403534 275.9227449 176.14403534 275.9227449 174.95196533 275.52511597 C161.62415485 271.05788607 148.68709909 266.07837106 136 260 C134.93571777 259.4932373 133.87143555 258.98647461 132.77490234 258.46435547 C109.62282891 247.36377206 87.86999912 234.35348725 68 218 C66.98164063 217.16597656 65.96328125 216.33195313 64.9140625 215.47265625 C50.77645267 203.71965472 37.79456265 190.9147894 27 176 C26.38753418 175.15477783 26.38753418 175.15477783 25.76269531 174.29248047 C-2.79541466 134.55499863 -18.79357748 84.79190321 -10.7578125 35.671875 C-8.2165328 23.35845788 -5.44343082 11.39645942 0 0 Z " fill="#FDA628" transform="translate(398,423)"/>
<path d="M0 0 C0.95036133 0.4014624 0.95036133 0.4014624 1.91992188 0.81103516 C9.72066308 4.21837017 16.5513213 8.44382849 23 14 C23.97646484 14.76183594 23.97646484 14.76183594 24.97265625 15.5390625 C34.2021886 22.98874467 43.49982716 34.95264429 48 46 C47.4931593 50.16433726 45.98977212 53.85803275 44.453125 57.7421875 C44.20004578 58.38761505 43.94696655 59.0330426 43.68621826 59.69802856 C42.87806498 61.75858695 42.0646799 63.81701409 41.25 65.875 C36.16857178 78.71490156 31.09006597 91.58711339 27.9375 105.0625 C26.80234038 109.88038946 25.52901487 114.60921327 24.12109375 119.35546875 C21.66412281 127.89615163 19.87704529 136.5415831 18.125 145.25 C17.95458191 146.08894806 17.78416382 146.92789612 17.60858154 147.79226685 C15.1345212 159.9809611 12.79924564 172.1917968 10.625 184.4375 C10.50384827 185.11453979 10.38269653 185.79157959 10.25787354 186.48913574 C8.5122702 196.29416295 7.15599801 206.11188409 6 216 C1.56387367 217.32071613 -2.787287 218.41185254 -7.3515625 219.21875 C-8.53363281 219.42886719 -9.71570313 219.63898438 -10.93359375 219.85546875 C-12.15175781 220.06816406 -13.36992188 220.28085937 -14.625 220.5 C-15.81996094 220.71269531 -17.01492188 220.92539062 -18.24609375 221.14453125 C-34.04437549 223.934477 -49.4209713 226.09565663 -65.48046875 226.0234375 C-66.20890991 226.02174561 -66.93735107 226.02005371 -67.68786621 226.01831055 C-69.45858263 226.01395097 -71.22929297 226.00722792 -73 226 C-73.1451001 225.04673828 -73.2902002 224.09347656 -73.43969727 223.11132812 C-77.58748501 196.02664143 -82.26433184 169.12869164 -89.94140625 142.78515625 C-91.29888221 137.9313031 -92.34026111 133.05721564 -93.32421875 128.11328125 C-94.06773843 124.68793337 -95.00480905 121.36062616 -96 118 C-96.48146484 116.36417969 -96.48146484 116.36417969 -96.97265625 114.6953125 C-98.93947753 108.25203418 -101.01588126 101.89114539 -103.36328125 95.57421875 C-103.77634521 94.45837402 -104.18940918 93.3425293 -104.61499023 92.19287109 C-105.44587029 89.96377494 -106.28760565 87.73869081 -107.14086914 85.51806641 C-107.5249292 84.4872998 -107.90898926 83.4565332 -108.3046875 82.39453125 C-108.8303833 81.01551636 -108.8303833 81.01551636 -109.36669922 79.60864258 C-110.2972206 75.77571237 -109.60596835 73.15666922 -107.80078125 69.7109375 C-107.30964844 68.94007813 -106.81851563 68.16921875 -106.3125 67.375 C-104.08804382 63.81375661 -102.05317412 60.22956418 -100.125 56.5 C-95.05433535 47.15792275 -87.81519244 39.4601736 -80.578125 31.7578125 C-79.0997358 30.17638405 -77.63913749 28.57686476 -76.234375 26.9296875 C-68.91076377 18.68137789 -56.85184426 13.56206535 -45.96801758 12.78295898 C-18.71310997 11.82481707 -18.71310997 11.82481707 -7 17 C-6.04867187 17.40089844 -5.09734375 17.80179687 -4.1171875 18.21484375 C6.97576782 23.54502423 14.44891053 32.79830038 21.28344727 42.70776367 C27.96485202 53.18912769 27.96485202 53.18912769 37 61 C33.1266242 54.80730799 29.1866508 48.6874293 24.94140625 42.7421875 C23.48134401 40.67988631 22.05890048 38.60601613 20.65234375 36.5078125 C10.97937117 22.24613608 -0.83862069 14.31975963 -18 11 C-22.84211613 10.61712859 -27.64538605 10.6244858 -32.5 10.6875 C-33.74136719 10.68427734 -34.98273438 10.68105469 -36.26171875 10.67773438 C-53.26386671 10.77627159 -68.63110043 14.63110043 -81 27 C-81 27.99 -81 28.98 -81 30 C-82.50390625 31.578125 -82.50390625 31.578125 -84.5625 33.25 C-96.28838593 43.13855521 -103.62706472 54.70956601 -111 68 C-113.49512555 66.75243723 -113.74480619 65.81920639 -114.91015625 63.32421875 C-115.26013672 62.57849609 -115.61011719 61.83277344 -115.97070312 61.06445312 C-116.33099609 60.28005859 -116.69128906 59.49566406 -117.0625 58.6875 C-117.42666016 57.91470703 -117.79082031 57.14191406 -118.16601562 56.34570312 C-121.50444817 49.16899877 -121.50444817 49.16899877 -122 46 C-120.515625 43.625 -120.515625 43.625 -118.25 41 C-117.42113281 40.03449219 -116.59226562 39.06898438 -115.73828125 38.07421875 C-114.8278157 37.04743967 -113.91500864 36.0227326 -113 35 C-112.54415527 34.48775879 -112.08831055 33.97551758 -111.61865234 33.44775391 C-108.4627319 29.91663082 -105.24013566 26.45387774 -102 23 C-101.35675781 22.27941406 -100.71351563 21.55882812 -100.05078125 20.81640625 C-76.45116395 -4.62613127 -31.78684751 -13.43234615 0 0 Z " fill="#FD8B2D" transform="translate(801,419)"/>
<path d="M0 0 C1.78920647 0.04266539 3.57897194 0.06161019 5.36865234 0.07275391 C18.49247863 0.61539297 32.32664063 7.08887694 43.23193359 14.05322266 C44.72853516 14.99488281 44.72853516 14.99488281 46.25537109 15.95556641 C50.97267602 20.03033263 52.57555233 26.37592426 54.66943359 32.05322266 C55.14915492 33.31922383 55.62987883 34.58484552 56.11157227 35.85009766 C60.13088101 46.48212929 63.81941459 57.21217945 67.23193359 68.05322266 C67.4878125 68.8450293 67.74369141 69.63683594 68.00732422 70.45263672 C74.72410155 91.25764195 79.05957997 112.69606243 82.74658203 134.22314453 C83.27752354 137.31905702 83.82154177 140.41256466 84.36474609 143.50634766 C84.73803449 145.66765202 85.11044967 147.82910741 85.48193359 149.99072266 C85.65740723 150.99192139 85.83288086 151.99312012 86.01367188 153.0246582 C86.17335449 153.97123291 86.33303711 154.91780762 86.49755859 155.89306641 C86.63967773 156.72185303 86.78179688 157.55063965 86.92822266 158.40454102 C87.29856963 161.63435962 87.27885042 164.805231 87.23193359 168.05322266 C33.00387921 168.57619351 -18.11328941 162.8707241 -68.76806641 142.05322266 C-68.96270803 135.44665333 -68.56166862 129.33225934 -67.20556641 122.86572266 C-67.03428223 122.02783203 -66.86299805 121.18994141 -66.68652344 120.32666016 C-64.17737568 108.63304426 -61.38484019 95.68399449 -55.76806641 85.05322266 C-56.42806641 85.05322266 -57.08806641 85.05322266 -57.76806641 85.05322266 C-66.27424835 101.86244686 -71.9617728 119.41440692 -74.76806641 138.05322266 C-80.18833524 137.45768356 -84.61145295 135.60082044 -89.51806641 133.36572266 C-90.31067871 133.00486572 -91.10329102 132.64400879 -91.91992188 132.2722168 C-94.21048801 131.21501441 -96.49108327 130.13932805 -98.76806641 129.05322266 C-99.88955078 128.51955078 -101.01103516 127.98587891 -102.16650391 127.43603516 C-103.06626953 126.95908203 -103.96603516 126.48212891 -104.89306641 125.99072266 C-106.04162109 125.38550781 -106.04162109 125.38550781 -107.21337891 124.76806641 C-108.76806641 123.05322266 -108.76806641 123.05322266 -108.96582031 119.88623047 C-108.76720733 116.03657139 -108.13162647 112.73519807 -107.15869141 109.01025391 C-106.99060974 108.36054123 -106.82252808 107.71082855 -106.64935303 107.04142761 C-106.293532 105.67313196 -105.93362604 104.30589265 -105.56982422 102.93969727 C-105.02471958 100.89073095 -104.49296895 98.83866889 -103.96337891 96.78564453 C-95.51279624 64.34177565 -81.66994913 30.08214109 -51.78320312 11.89941406 C-35.13332386 2.14898684 -18.97036811 -0.45600064 0 0 Z " fill="#885ED1" transform="translate(625.76806640625,477.94677734375)"/>
<path d="M0 0 C0.66 0.33 1.32 0.66 2 1 C-13.00124702 17.10290109 -13.00124702 17.10290109 -19.48828125 23.44921875 C-21.22110491 25.17364905 -21.22110491 25.17364905 -23.375 28 C-23.91125 28.66 -24.4475 29.32 -25 30 C-25.66 30 -26.32 30 -27 30 C-27.33 30.99 -27.66 31.98 -28 33 C-29.3203125 34.33203125 -29.3203125 34.33203125 -31.125 35.8125 C-34.64279941 38.78715623 -38.01988068 41.87365336 -41.36694336 45.03662109 C-48.02424939 51.32718633 -54.79845854 57.33155981 -62 63 C-63.07576379 63.85646576 -64.15127227 64.71325226 -65.2265625 65.5703125 C-68.79731037 68.40668745 -72.39382696 71.2088561 -76 74 C-76.6094043 74.47308594 -77.21880859 74.94617188 -77.84667969 75.43359375 C-89.18394458 84.19933654 -100.96754166 92.22137473 -113 100 C-114.27037109 100.82201904 -114.27037109 100.82201904 -115.56640625 101.66064453 C-134.36321851 113.74275318 -153.95308132 124.34360012 -174.1875 133.8125 C-175.26797607 134.32240479 -176.34845215 134.83230957 -177.46166992 135.35766602 C-178.47849854 135.82358154 -179.49532715 136.28949707 -180.54296875 136.76953125 C-181.43008545 137.17792236 -182.31720215 137.58631348 -183.23120117 138.00708008 C-188.00566866 139.71925354 -191.49589796 140.51081072 -196.38305664 138.85107422 C-198.12897095 137.96186279 -198.12897095 137.96186279 -199.91015625 137.0546875 C-200.55087067 136.73359009 -201.19158508 136.41249268 -201.85171509 136.08166504 C-203.93218249 135.03156587 -205.9973405 133.95485427 -208.0625 132.875 C-209.50660584 132.13432077 -210.95102613 131.39425434 -212.39575195 130.65478516 C-251.67746593 110.41537091 -287.40811735 84.7578059 -320 55 C-320.91265625 54.18015625 -321.8253125 53.3603125 -322.765625 52.515625 C-333.56626072 42.74631224 -343.75265878 32.34180685 -354 22 C-352 21 -352 21 -350.13671875 21.6015625 C-349.32847656 21.93929687 -348.52023437 22.27703125 -347.6875 22.625 C-339.61391039 25.69913359 -331.20995114 27.45440794 -322.80200195 29.36010742 C-320.86625715 29.80217304 -318.93260057 30.25344763 -317.00073242 30.7121582 C-309.08135704 32.58354462 -301.13034287 34.20854235 -293.12866211 35.67993164 C-291.76647154 35.93215339 -290.40510773 36.18888794 -289.04467773 36.45043945 C-264.88209199 41.09562705 -240.82776786 41.34879416 -216.30712891 41.31567383 C-212.60941402 41.31104285 -208.91202806 41.31797455 -205.21435547 41.33618164 C-184.25758748 41.43830649 -163.75927827 41.221006 -143 38 C-141.31626918 37.7516975 -139.63251366 37.50356236 -137.94873047 37.25561523 C-133.47673425 36.57965465 -129.01914186 35.83245222 -124.5625 35.0625 C-123.00415694 34.79748753 -121.44580722 34.53251419 -119.88745117 34.26757812 C-109.19718551 32.43697696 -98.56607988 30.45140026 -88 28 C-87.06784668 27.78907715 -86.13569336 27.5781543 -85.17529297 27.36083984 C-70.72234893 24.08206645 -56.54573612 20.22953993 -42.41748047 15.7578125 C-40.31617603 15.09911234 -38.21091438 14.46275689 -36.09765625 13.84375 C-28.82778577 11.69995942 -21.95990709 8.98766743 -15 6 C-12.29819976 4.858699 -9.58872602 3.73760821 -6.875 2.625 C-5.89684326 2.21241943 -5.89684326 2.21241943 -4.89892578 1.79150391 C-3.28902285 1.13467033 -1.64611491 0.55993167 0 0 Z " fill="#136BD8" transform="translate(962,705)"/>
<path d="M0 0 C0.84240234 0.00064453 1.68480469 0.00128906 2.55273438 0.00195312 C11.10082637 0.06117778 18.87324818 0.67473553 26.875 3.8125 C27.56585693 4.08263916 28.25671387 4.35277832 28.96850586 4.63110352 C53.97988117 14.70106934 68.55597989 35.19939924 79.0625 59.1875 C79.42631514 60.84777932 79.76592647 62.51390117 80.0625 64.1875 C36.39105945 72.27436783 36.39105945 72.27436783 16.625 74.6875 C15.325625 74.84702148 14.02625 75.00654297 12.6875 75.17089844 C7.43920567 75.7837656 2.3520071 76.26228421 -2.9375 76.1875 C-4.5950069 85.86131301 -6.27480802 96.77300267 -0.90722656 105.48144531 C6.37911103 114.74863224 16.11764477 122.32436439 25.71679688 129.02246094 C26.16087891 129.40692383 26.60496094 129.79138672 27.0625 130.1875 C27.0625 130.8475 27.0625 131.5075 27.0625 132.1875 C-4.8671909 149.41135734 -37.97315744 163.67663086 -72.875 173.8125 C-73.72723145 174.06056396 -74.57946289 174.30862793 -75.45751953 174.56420898 C-79.43492076 175.67003903 -82.78030719 176.29876857 -86.9375 176.1875 C-87.20764924 168.85244775 -86.43137318 162.07242916 -85.0625 154.875 C-84.68902583 152.83483252 -84.31662105 150.79446898 -83.9453125 148.75390625 C-83.76774414 147.78727051 -83.59017578 146.82063477 -83.40722656 145.82470703 C-82.84411575 142.66320859 -82.3797906 139.49297148 -81.9375 136.3125 C-81.10544272 130.70163589 -79.81134911 125.25278931 -78.46435547 119.7487793 C-77.29251444 114.8959344 -76.36470921 110.05091846 -75.5625 105.125 C-72.56391677 87.51036059 -67.575879 70.55060146 -61.9375 53.625 C-61.68646515 52.86899506 -61.4354303 52.11299011 -61.17678833 51.33407593 C-58.55040076 43.45833843 -55.81251249 35.62529649 -52.82421875 27.87890625 C-52.37006592 26.69627197 -51.91591309 25.5136377 -51.44799805 24.29516602 C-48.99140869 19.2410322 -45.49827335 16.32393089 -40.9375 13.1875 C-40.07898438 12.56359375 -39.22046875 11.9396875 -38.3359375 11.296875 C-31.90689954 6.88733311 -25.43453865 4.23391029 -17.9375 2.1875 C-16.70257812 1.8265625 -15.46765625 1.465625 -14.1953125 1.09375 C-9.45765533 -0.07227843 -4.85599679 -0.07026957 0 0 Z " fill="#5EBF4E" transform="translate(908.9375,454.8125)"/>
<path d="M0 0 C11.46759316 8.67960033 20.57816163 21.19993172 23.046875 35.64453125 C24.68633561 51.79073423 22.2339819 67.13424653 11.9453125 80.21875 C11.40390625 80.86714844 10.8625 81.51554687 10.3046875 82.18359375 C9.5415625 83.23546875 8.7784375 84.28734375 7.9921875 85.37109375 C-3.26789112 97.15489695 -18.50375622 102.97150586 -34.50683594 103.51611328 C-52.02912992 103.81373913 -65.91655541 97.97421454 -78.6328125 85.80859375 C-85.52046565 78.54998985 -90.19148681 70.89267324 -92.6953125 61.18359375 C-92.87964844 60.47074219 -93.06398438 59.75789063 -93.25390625 59.0234375 C-96.09538442 40.74242308 -92.50812909 24.86930732 -81.953125 9.67578125 C-61.73932031 -15.22276788 -25.62211798 -17.26707951 0 0 Z " fill="#FD9B28" transform="translate(795.6953125,289.81640625)"/>
<path d="M0 0 C1.42602539 -0.02416992 1.42602539 -0.02416992 2.88085938 -0.04882812 C9.01953542 -0.05305878 13.45571626 0.80914683 19.0625 3.3125 C19.92617188 3.66570312 20.78984375 4.01890625 21.6796875 4.3828125 C33.50193251 9.9053145 43.80348248 20.17753483 49.28515625 32.10546875 C54.58372781 47.14915181 52.92387177 63.00860625 46.5625 77.3125 C40.92369818 88.03318495 32.06476467 95.51347572 21.0625 100.3125 C20.17433594 100.72371094 19.28617188 101.13492188 18.37109375 101.55859375 C7.70618452 105.84532361 -6.82259411 106.44235179 -17.69140625 102.3359375 C-18.43261719 101.99820313 -19.17382812 101.66046875 -19.9375 101.3125 C-20.81277344 100.93351562 -21.68804688 100.55453125 -22.58984375 100.1640625 C-35.36556019 93.96434597 -45.0378785 82.91723298 -49.75 69.5625 C-54.12991683 55.65294596 -53.40535604 40.3462099 -46.9375 27.3125 C-44.87187431 23.71269601 -42.58783154 20.50292011 -39.9375 17.3125 C-39.36515625 16.60480469 -38.7928125 15.89710938 -38.203125 15.16796875 C-28.42788843 4.24393301 -14.23537 -0.04805999 0 0 Z " fill="#A566D0" transform="translate(611.9375,348.6875)"/>
<path d="M0 0 C0.33 0.66 0.66 1.32 1 2 C0.14453125 3.85546875 0.14453125 3.85546875 -1.1875 6.1875 C-4.61425173 12.78399708 -6.47128724 19.75225632 -8 27 C-8.18022705 27.85295654 -8.3604541 28.70591309 -8.54614258 29.5847168 C-10.15449233 38.06673604 -10.35620075 46.46008029 -10.3125 55.0625 C-10.31100952 55.78822205 -10.30951904 56.51394409 -10.3079834 57.26165771 C-10.26571007 68.72750951 -9.60190053 79.80377487 -7 91 C-6.56494141 92.918125 -6.56494141 92.918125 -6.12109375 94.875 C2.59144965 129.87099024 19.88046874 163.19649083 44 190 C45.10042396 191.27590064 46.20067125 192.55195366 47.30078125 193.828125 C56.90611026 204.81065524 67.41225052 215.12866657 79 224 C79.93070312 224.74765625 80.86140625 225.4953125 81.8203125 226.265625 C111.26813944 249.61300698 146.79994725 271.20358176 184 279 C184 279.66 184 280.32 184 281 C133.87712381 282.986093 83.88197606 267.74051425 44 237 C42.9996875 236.23042969 41.999375 235.46085938 40.96875 234.66796875 C38.25475745 232.50379366 35.61657134 230.28091787 33 228 C32.21931152 227.3198584 32.21931152 227.3198584 31.42285156 226.62597656 C23.82839537 219.95799948 17.17630617 213.03141971 11 205 C9.80117188 203.52466797 9.80117188 203.52466797 8.578125 202.01953125 C-21.74676487 164.41950689 -31.64916368 119.03550825 -27.5234375 71.63671875 C-25.0055462 49.09802373 -16.63475432 16.63475432 0 0 Z " fill="#10BAF0" transform="translate(379,435)"/>
<path d="M0 0 C0.97066406 0.71542969 0.97066406 0.71542969 1.9609375 1.4453125 C8.83244362 7.38403498 13.1758975 17.52769251 16 26 C16.22886818 29.20415449 16.18516945 32.41350718 16.1875 35.625 C16.19974609 36.48996094 16.21199219 37.35492188 16.22460938 38.24609375 C16.25335833 51.02979439 12.39342572 61.92268037 3.6171875 71.44921875 C-8.68643687 83.24762183 -21.99153394 86.62792984 -38.5625 86.30078125 C-51.63226708 85.75843948 -61.49696948 80.00990023 -70.35546875 70.4609375 C-80.55473096 57.48701671 -82.4190884 43.9602309 -81 28 C-79.33424131 16.38391282 -72.00992826 5.30932474 -63 -2 C-43.77051994 -16.28382698 -18.5727306 -13.73792454 0 0 Z " fill="#68CA56" transform="translate(941,348)"/>
<path d="M0 0 C0.60103546 0.27053192 1.20207092 0.54106384 1.82131958 0.8197937 C3.7398777 1.68492494 5.65505888 2.55726914 7.5703125 3.4296875 C8.81750326 3.99264204 10.06489769 4.5551456 11.3125 5.1171875 C16.35559226 7.39448206 21.39290304 9.68204049 26.39428711 12.04980469 C35.65119812 16.43118607 45.01496948 20.46190179 54.5078125 24.3046875 C55.28302246 24.6195108 56.05823242 24.93433411 56.85693359 25.25869751 C70.18867715 30.65692716 83.64739376 35.66448298 97.1953125 40.4921875 C98.08014313 40.80792725 98.96497375 41.12366699 99.87661743 41.44897461 C109.753326 44.96361927 119.65041968 48.29749009 129.6953125 51.3046875 C131.38787478 51.83355399 133.07936297 52.36587567 134.76953125 52.90234375 C135.53483154 53.1451709 136.30013184 53.38799805 137.08862305 53.63818359 C138.22424683 53.99904053 138.22424683 53.99904053 139.3828125 54.3671875 C145.80451912 56.4021046 152.2340752 58.39809289 158.6953125 60.3046875 C155.32924384 61.42567654 153.1379279 61.16387866 149.72167969 60.30419922 C148.73254578 60.05999237 147.74341187 59.81578552 146.7243042 59.56417847 C145.65770569 59.29034332 144.59110718 59.01650818 143.4921875 58.734375 C142.38159973 58.45626984 141.27101196 58.17816467 140.12677002 57.89163208 C137.76861163 57.29906825 135.41160025 56.70192405 133.05566406 56.10058594 C129.50323481 55.19446184 125.94738755 54.30300566 122.390625 53.4140625 C111.47524027 50.66778608 100.64913949 47.80623207 89.93896484 44.34179688 C85.54274842 42.93617235 81.09962948 41.77270313 76.6328125 40.6171875 C20.06419515 25.53935187 20.06419515 25.53935187 -2.69140625 11.87109375 C-6.22821287 9.74241411 -6.22821287 9.74241411 -10.23193359 9.65527344 C-16.45722898 11.90873466 -22.50731255 14.487222 -28.5546875 17.1796875 C-36.73446133 20.78019458 -44.91368195 24.22331672 -53.3046875 27.3046875 C-54.67987396 27.82502832 -56.0548942 28.3458088 -57.4296875 28.8671875 C-62.37665169 30.71078524 -67.34113627 32.5063404 -72.3046875 34.3046875 C-73.20977051 34.63267334 -74.11485352 34.96065918 -75.04736328 35.29858398 C-86.54414513 39.44088344 -98.00279628 43.19991782 -109.859375 46.1640625 C-113.37499211 47.04637779 -116.83377973 48.04997901 -120.2956543 49.12182617 C-131.56941103 52.60300443 -143.0654246 55.01691329 -154.59326172 57.49560547 C-158.30631684 58.30504269 -162.01086015 59.14618217 -165.71484375 59.99609375 C-185.95480612 64.60161743 -206.30956371 68.1740173 -226.78613281 71.55419922 C-232.61121529 72.51793349 -238.42716967 73.53219458 -244.2421875 74.5546875 C-245.98040604 74.85713149 -247.71868427 75.15923265 -249.45703125 75.4609375 C-251.92783024 75.89003706 -254.39818903 76.32121816 -256.86767578 76.7578125 C-259.34578366 77.19543079 -261.82506412 77.62575214 -264.3046875 78.0546875 C-265.0174585 78.18262695 -265.73022949 78.31056641 -266.46459961 78.44238281 C-270.82767325 79.18838698 -274.90002612 79.41939222 -279.3046875 79.3046875 C-279.3046875 78.9746875 -279.3046875 78.6446875 -279.3046875 78.3046875 C-278.04849609 78.04365234 -276.79230469 77.78261719 -275.49804688 77.51367188 C-252.79206696 72.7853208 -230.15856976 67.95677735 -207.6953125 62.17578125 C-200.63549305 60.36386112 -193.54217877 58.73373978 -186.43499756 57.121521 C-177.15759274 55.01165535 -168.0145135 52.78945224 -158.98632812 49.7824707 C-151.4933375 47.3001352 -143.91088825 45.16655022 -136.31573486 43.02316284 C-125.41982653 39.94707009 -114.5349141 36.85433018 -103.7421875 33.4296875 C-102.91227295 33.16808838 -102.0823584 32.90648926 -101.22729492 32.63696289 C-96.26909348 31.03884798 -91.44801365 29.20708497 -86.63647461 27.21020508 C-84.2608085 26.28764769 -81.88243218 25.55576861 -79.4296875 24.8671875 C-74.58687208 23.46949506 -70.03671311 21.59050985 -65.40625 19.609375 C-62.41581092 18.35143211 -59.40495077 17.19286754 -56.3671875 16.0546875 C-42.92815534 10.91813434 -29.69908047 5.23559609 -16.921875 -1.3828125 C-10.32602245 -4.69058333 -6.47432174 -2.93038203 0 0 Z " fill="#F3FBFD" transform="translate(779.3046875,156.6953125)"/>
<path d="M0 0 C2.64 0 5.28 0 8 0 C8.34905188 36.11855909 8.31064691 71.99509788 5 108 C4.92267639 108.85382263 4.84535278 109.70764526 4.76568604 110.58734131 C2.92300122 130.8482926 0.60437301 150.9685903 -3 171 C-3.20850586 172.19125488 -3.41701172 173.38250977 -3.63183594 174.60986328 C-7.09716235 194.34311174 -11.37739317 213.81609368 -16.10693359 233.28271484 C-17.20559317 237.85575768 -18.25126905 242.43988639 -19.2824707 247.02856445 C-19.51925537 248.00913818 -19.75604004 248.98971191 -20 250 C-20.21744873 251.21163818 -20.43489746 252.42327637 -20.65893555 253.67163086 C-22 257 -22 257 -25.00585938 258.84863281 C-26.27477193 259.32854043 -27.55528852 259.77848702 -28.84375 260.203125 C-29.52747681 260.45245789 -30.21120361 260.70179077 -30.91564941 260.9586792 C-33.10207504 261.74867417 -35.29983401 262.49924161 -37.5 263.25 C-38.94880536 263.76835612 -40.39673485 264.28916722 -41.84375 264.8125 C-61.87954952 272 -61.87954952 272 -67 272 C-67.66 269.03 -68.32 266.06 -69 263 C-65.01999055 261.18412069 -60.99789028 260.24872024 -56.75146484 259.30151367 C-49.55524889 257.69561455 -42.37195912 256.02508454 -35.375 253.6875 C-34.39273437 253.36136719 -33.41046875 253.03523437 -32.3984375 252.69921875 C-26.1385815 248.26430448 -25.2788938 236.59933399 -23.5625 229.5625 C-23.27568359 228.40556641 -22.98886719 227.24863281 -22.69335938 226.05664062 C-21.78428163 222.37376218 -20.89153594 218.68716142 -20 215 C-19.66394728 213.63776496 -19.32784586 212.27554194 -18.99169922 210.91333008 C-16.53690101 200.85794876 -14.64183681 190.77943492 -13 180.5625 C-12.7435973 178.99302516 -12.48683742 177.42360863 -12.22973633 175.85424805 C-11.47617722 171.23779778 -10.73555298 166.61935008 -10 162 C-9.89153748 161.3196167 -9.78307495 160.6392334 -9.67132568 159.93823242 C-9.00169989 155.73093884 -8.34109228 151.52231252 -7.6875 147.3125 C-7.52830078 146.28777588 -7.36910156 145.26305176 -7.20507812 144.20727539 C-6.52691416 139.76149235 -5.91214021 135.32997331 -5.45703125 130.85546875 C-5 127 -5 127 -4 126 C-3.79451104 124.46686709 -3.65181716 122.92524968 -3.53515625 121.3828125 C-3.45837646 120.39563232 -3.38159668 119.40845215 -3.30249023 118.39135742 C-3.18369507 116.7745105 -3.18369507 116.7745105 -3.0625 115.125 C-2.97750244 114.02196533 -2.89250488 112.91893066 -2.80493164 111.7824707 C-2.33792833 105.68055137 -1.89667043 99.57687847 -1.4609375 93.47265625 C-1.37320068 92.25497559 -1.28546387 91.03729492 -1.19506836 89.78271484 C-1.02561322 87.41741026 -0.85966271 85.05185155 -0.69750977 82.68603516 C-0.62072998 81.60757324 -0.5439502 80.52911133 -0.46484375 79.41796875 C-0.399021 78.46688232 -0.33319824 77.5157959 -0.26538086 76.53588867 C0 74 0 74 0.51147461 72.01171875 C1.1329402 69.4525601 1.1997503 67.02614797 1.28125 64.39453125 C1.31863281 63.32912109 1.35601563 62.26371094 1.39453125 61.16601562 C1.46521194 58.91863134 1.53552063 56.67123533 1.60546875 54.42382812 C1.66154297 52.83151367 1.66154297 52.83151367 1.71875 51.20703125 C1.74904297 50.2322583 1.77933594 49.25748535 1.81054688 48.25317383 C2 46 2 46 3 45 C3.23363881 43.15108054 3.41303635 41.29511969 3.5625 39.4375 C3.68818359 37.91962891 3.68818359 37.91962891 3.81640625 36.37109375 C3.87699219 35.58863281 3.93757813 34.80617188 4 34 C4.99 33.67 5.98 33.34 7 33 C7 22.44 7 11.88 7 1 C4.69 1 2.38 1 0 1 C0 0.67 0 0.34 0 0 Z " fill="#0A89DE" transform="translate(1083,233)"/>
<path d="M0 0 C12.3697549 1.4755799 24.57485099 3.04548932 36.66015625 6.15625 C51.61645009 9.93468213 66.76552704 12.70804047 81.94042969 15.44482422 C84.51713254 15.91238106 87.09108935 16.39136525 89.6640625 16.87890625 C99.06156895 18.63453334 108.47892354 19.86663129 117.98120117 20.91064453 C118.9632251 21.0239209 119.94524902 21.13719727 120.95703125 21.25390625 C121.83335205 21.35002197 122.70967285 21.4461377 123.61254883 21.54516602 C126 22 126 22 130 24 C130 34.56 130 45.12 130 56 C129.01 56.495 129.01 56.495 128 57 C127.56947737 59.55351113 127.56947737 59.55351113 127.4375 62.5 C127.09628611 67.90371389 127.09628611 67.90371389 126 69 C125.86606922 70.59153474 125.79643054 72.18856239 125.75390625 73.78515625 C125.72232422 74.78297119 125.69074219 75.78078613 125.65820312 76.80883789 C125.61083008 78.41940063 125.61083008 78.41940063 125.5625 80.0625 C125.26632984 88.57048995 124.6620707 96.85389271 123.4765625 105.28515625 C122.6789459 111.50264303 122.34164319 117.74253528 122 124 C121.67 124 121.34 124 121 124 C120.8728189 108.29111542 121.18936603 92.62021988 121.74462891 76.92114258 C121.87544128 73.17486234 121.99458709 69.42832208 122.11328125 65.68164062 C122.53872421 53.03082166 123.17169243 40.53231928 125 28 C123.62062256 27.96217407 123.62062256 27.96217407 122.21337891 27.92358398 C99.60610025 27.17133067 77.02291963 21.86671411 55 17 C54.03562012 16.78843262 53.07124023 16.57686523 52.07763672 16.35888672 C41.78999959 14.09392371 31.56897368 11.69626852 21.41015625 8.90625 C16.90310197 7.70849903 12.36225542 6.69667102 7.8046875 5.7109375 C5.0763438 5.01935177 2.5841602 4.10749723 0 3 C0 2.01 0 1.02 0 0 Z " fill="#0D90E2" transform="translate(960,210)"/>
<path d="M0 0 C-1.1446875 0.8971875 -1.1446875 0.8971875 -2.3125 1.8125 C-4.8915388 3.76607214 -4.8915388 3.76607214 -6.27905273 5.54736328 C-8.75456774 7.63692411 -11.05071797 7.85577605 -14.22265625 8.4296875 C-16.10065918 8.78281006 -16.10065918 8.78281006 -18.01660156 9.14306641 C-18.67728638 9.2624054 -19.33797119 9.38174438 -20.01867676 9.50469971 C-23.45134461 10.12663114 -26.87625889 10.78798945 -30.30078125 11.453125 C-31.31179398 11.64903732 -31.31179398 11.64903732 -32.3432312 11.84890747 C-37.55510641 12.87517973 -42.65546324 14.12839576 -47.75 15.625 C-58.96540769 18.89439836 -70.25792989 21.34442849 -81.7578125 23.40625 C-82.45178131 23.53189835 -83.14575012 23.65754669 -83.86074829 23.78700256 C-87.33980919 24.4169113 -90.82000451 25.03542198 -94.30517578 25.63061523 C-102.35214042 27.0503305 -109.71755217 29.11759787 -117.29589844 32.11157227 C-120 33 -120 33 -122 32 C-126.91211881 31.72195554 -129.2935035 32.1174014 -134 34 C-134.33 40.6 -134.66 47.2 -135 54 C-135.33 54 -135.66 54 -136 54 C-136 44.43 -136 34.86 -136 25 C-132.41125 24.4225 -128.8225 23.845 -125.125 23.25 C-123.90643311 23.05365967 -122.68786621 22.85731934 -121.43237305 22.6550293 C-115.75739832 21.74526781 -110.0808081 20.85597413 -104.39453125 20.01953125 C-90.66028832 17.99146867 -77.11219317 15.4927941 -63.54589844 12.54638672 C-60.18346491 11.82475973 -56.81269644 11.15939268 -53.4375 10.5 C-47.17210024 9.25675364 -40.92910863 7.91994681 -34.6875 6.5625 C-33.70789307 6.34956299 -32.72828613 6.13662598 -31.71899414 5.91723633 C-27.04062352 4.89605734 -22.36641359 3.86022197 -17.69921875 2.7890625 C-16.47295776 2.50953735 -16.47295776 2.50953735 -15.22192383 2.22436523 C-13.70373694 1.87707584 -12.18656152 1.52532161 -10.6706543 1.16821289 C-7.04789064 0.34080486 -3.71936366 -0.19537513 0 0 Z " fill="#0E79D9" transform="translate(584,207)"/>
<path d="M0 0 C1.91690072 9.01351192 -0.54090023 17.03046456 -2.75 25.75 C-3.11598105 27.23663577 -3.48057395 28.723614 -3.84375 30.2109375 C-4.55368962 33.11307831 -5.27127167 36.01316418 -5.99414062 38.91210938 C-7.16171684 43.61943628 -8.23926884 48.34615148 -9.29785156 53.07910156 C-9.52956055 54.04299805 -9.76126953 55.00689453 -10 56 C-10.21688477 57.20978516 -10.43376953 58.41957031 -10.65722656 59.66601562 C-12 63 -12 63 -15.00585938 64.84863281 C-16.27477193 65.32854043 -17.55528852 65.77848702 -18.84375 66.203125 C-19.52747681 66.45245789 -20.21120361 66.70179077 -20.91564941 66.9586792 C-23.10207504 67.74867417 -25.29983401 68.49924161 -27.5 69.25 C-28.94880536 69.76835612 -30.39673485 70.28916722 -31.84375 70.8125 C-51.87954952 78 -51.87954952 78 -57 78 C-57.66 75.03 -58.32 72.06 -59 69 C-55.01999055 67.18412069 -50.99789028 66.24872024 -46.75146484 65.30151367 C-39.55524889 63.69561455 -32.37195912 62.02508454 -25.375 59.6875 C-24.39273437 59.36136719 -23.41046875 59.03523438 -22.3984375 58.69921875 C-16.13791246 54.26383049 -15.28001234 42.60066439 -13.5625 35.5625 C-13.25465576 34.32435547 -12.94681152 33.08621094 -12.62963867 31.81054688 C-11.28964787 26.39550106 -9.97442448 20.98022418 -8.796875 15.52734375 C-8.62599365 14.74738037 -8.4551123 13.96741699 -8.27905273 13.16381836 C-7.84565194 11.15375492 -7.43177454 9.13950906 -7.01953125 7.125 C-5.83889425 3.50618926 -4.21704236 0 0 0 Z " fill="#1049C6" transform="translate(1073,427)"/>
<path d="M0 0 C-3.5835617 5.78718471 -9.21850198 8.14711775 -15.0625 11.1875 C-17.05389911 12.24252054 -19.0448067 13.29846949 -21.03515625 14.35546875 C-21.9156665 14.81590576 -22.79617676 15.27634277 -23.70336914 15.75073242 C-26.16532706 17.04544166 -26.16532706 17.04544166 -29 19 C-35.87238727 18.98219589 -40.96871978 15.54886498 -46.75 12.125 C-47.69488281 11.58230469 -48.63976562 11.03960938 -49.61328125 10.48046875 C-56.64011581 6.39231038 -56.64011581 6.39231038 -58.51196289 4.35180664 C-60.50384456 2.54228264 -61.78748655 2.57760112 -64.44921875 2.48828125 C-65.29677734 2.45283203 -66.14433594 2.41738281 -67.01757812 2.38085938 C-68.33918945 2.34702148 -68.33918945 2.34702148 -69.6875 2.3125 C-70.58017578 2.27833984 -71.47285156 2.24417969 -72.39257812 2.20898438 C-74.59492671 2.12654352 -76.79687938 2.05738449 -79 2 C-79 1.67 -79 1.34 -79 1 C-70.0285809 0.868848 -61.05715185 0.73840503 -52.08570957 0.60884857 C-47.91919517 0.54865812 -43.7526845 0.48823031 -39.58618164 0.42724609 C-35.55967445 0.36831993 -31.53315841 0.3100355 -27.50663567 0.25218201 C-25.97618216 0.2300822 -24.44573188 0.20775743 -22.91528511 0.18519592 C-15.27651775 0.07272781 -7.63977811 -0.02994524 0 0 Z " fill="#8FA2D0" transform="translate(802,746)"/>
<path d="M0 0 C6.44276589 5.72173433 10.9413273 13.15827825 15.59765625 20.33203125 C18.15021079 24.26192919 20.86261823 28.06656825 23.625 31.8515625 C25.09795466 34.15305415 26.06507441 36.4379443 27 39 C22.91810289 37.44318343 20.57848345 34.53049631 17.875 31.25 C17.39635498 30.67870361 16.91770996 30.10740723 16.42456055 29.51879883 C13.00809441 25.38135992 9.87692868 21.08922076 6.8125 16.6875 C-2.89640174 2.88191993 -14.23776146 -5.02469647 -31 -8 C-35.65575218 -8.41270105 -40.26567258 -8.46565896 -44.9375 -8.4375 C-46.10990234 -8.45748047 -47.28230469 -8.47746094 -48.49023438 -8.49804688 C-63.89716533 -8.48953946 -76.59182101 -3.20731804 -88 7 C-89.32 6.34 -90.64 5.68 -92 5 C-86.70528717 -0.04958724 -81.81812227 -4.26046619 -75 -7 C-74.10925781 -7.35964844 -73.21851563 -7.71929687 -72.30078125 -8.08984375 C-49.46109854 -16.84557477 -19.88849382 -14.69240084 0 0 Z " fill="#FEF8EC" transform="translate(811,441)"/>
<path d="M0 0 C0.99345932 0.00496994 0.99345932 0.00496994 2.00698853 0.01004028 C16.87327151 0.13920683 27.37912047 2.9567672 38.75 13.0078125 C46.60566853 21.23171549 55.32925367 32.9622132 56.25 44.625 C53.4986287 41.31830605 51.07838294 37.91491714 48.75024414 34.30859375 C38.65446976 18.69474234 28.0951749 9.57339163 10.25 3.625 C-7.02053459 1.98434075 -22.8642525 4.48913049 -36.75 15.625 C-39.28383711 18.15439957 -41.58244841 20.77685201 -43.75 23.625 C-44.08 22.635 -44.41 21.645 -44.75 20.625 C-32.59580419 5.76987178 -19.13566017 -0.16511844 0 0 Z " fill="#EDF8EF" transform="translate(911.75,469.375)"/>
<path d="M0 0 C0.99 0.33 1.98 0.66 3 1 C2.88206661 6.53604375 2.75784219 12.07189613 2.62768555 17.60766602 C2.58427067 19.49239218 2.54260057 21.37715936 2.50268555 23.26196289 C2.44514107 25.96513249 2.38140196 28.66809436 2.31640625 31.37109375 C2.29969376 32.21900986 2.28298126 33.06692596 2.26576233 33.9405365 C2.11387171 39.88612829 2.11387171 39.88612829 1 41 C0.86606922 42.59153474 0.79643054 44.18856239 0.75390625 45.78515625 C0.72232422 46.78297119 0.69074219 47.78078613 0.65820312 48.80883789 C0.62662109 49.88254639 0.59503906 50.95625488 0.5625 52.0625 C0.26632984 60.57048995 -0.3379293 68.85389271 -1.5234375 77.28515625 C-2.3210541 83.50264303 -2.65835681 89.74253528 -3 96 C-3.33 96 -3.66 96 -4 96 C-4.1271811 80.29111542 -3.81063397 64.62021988 -3.25537109 48.92114258 C-3.12455872 45.17486234 -3.00541291 41.42832208 -2.88671875 37.68164062 C-2.46127579 25.03082166 -1.82830757 12.53231928 0 0 Z " fill="#09A2E7" transform="translate(1085,238)"/>
<path d="M0 0 C-1.1446875 0.8971875 -1.1446875 0.8971875 -2.3125 1.8125 C-4.8915388 3.76607214 -4.8915388 3.76607214 -6.27905273 5.54736328 C-8.75456774 7.63692411 -11.05071797 7.85577605 -14.22265625 8.4296875 C-15.4751416 8.66526367 -16.72762695 8.90083984 -18.01806641 9.14355469 C-18.67881165 9.26291382 -19.33955688 9.38227295 -20.02032471 9.50524902 C-23.44446903 10.12521574 -26.86120062 10.78284711 -30.27734375 11.4453125 C-30.95011353 11.57550781 -31.6228833 11.70570313 -32.31604004 11.83984375 C-38.39405996 13.03701253 -44.30307799 14.61909968 -50.23803711 16.37524414 C-56.09617999 18.09195511 -61.95257167 19.20553393 -68 20 C-67.67 19.34 -67.34 18.68 -67 18 C-64.55179053 17.38277952 -62.16804132 16.87606156 -59.6875 16.4375 C-53.80996421 15.37495758 -53.80996421 15.37495758 -48 14 C-48.33 12.68 -48.66 11.36 -49 10 C-7.32469601 -0.22889675 -7.32469601 -0.22889675 0 0 Z " fill="#0E92E3" transform="translate(584,207)"/>
<path d="M0 0 C0.66 0.33 1.32 0.66 2 1 C1.3709375 1.59425781 0.741875 2.18851563 0.09375 2.80078125 C-18.09741816 20.41662632 -28.55004775 42.72075994 -35.67578125 66.6953125 C-36.92505151 70.87851814 -38.42587562 74.92851113 -40 79 C-40.33 79 -40.66 79 -41 79 C-38.94446459 50.22250424 -24.82499047 21.74952698 -3.3125 2.75 C-2.21456112 1.82588311 -1.1131044 0.90579269 0 0 Z " fill="#F0EFFB" transform="translate(579,511)"/>
<path d="M0 0 C-2 1 -2 1 -4.3203125 0.29296875 C-5.24585938 -0.07183594 -6.17140625 -0.43664062 -7.125 -0.8125 C-23.53950262 -7.25275103 -43.97431775 -7.88207637 -60.5703125 -1.6015625 C-73.96711917 4.6543495 -83.69680186 13.64080622 -94 24 C-89.89414399 12.29304644 -80.13286504 5.2226184 -70 -1 C-69.32453125 -1.44214844 -68.6490625 -1.88429688 -67.953125 -2.33984375 C-49.40615806 -13.21361861 -17.94747442 -10.46936008 0 0 Z " fill="#EDE3F7" transform="translate(655,501)"/>
<path d="M0 0 C0.33 0 0.66 0 1 0 C2.45559928 39.16121899 -5.10094703 77.82547713 -13 116 C-13.33 116 -13.66 116 -14 116 C-14.41779208 108.66015272 -13.01368708 101.70485261 -11.66394043 94.52246094 C-8.58391815 78.07872064 -6.09042734 61.6004524 -4 45 C-3.89204102 44.15663086 -3.78408203 43.31326172 -3.67285156 42.44433594 C-1.89202068 28.34759048 -0.98130693 14.17057697 0 0 Z " fill="#A4E3F6" transform="translate(1074,308)"/>
<path d="M0 0 C0.66 0.33 1.32 0.66 2 1 C0.68 2.65 -0.64 4.3 -2 6 C-0.88625 5.566875 0.2275 5.13375 1.375 4.6875 C6.17868147 2.87966289 11.07119317 1.42410197 16 0 C14.12292429 1.95528719 12.22087593 3.81785805 10.12890625 5.54296875 C4.67881887 10.04521485 0.88230737 14.66758179 -1.9453125 21.17578125 C-3 23 -3 23 -6 24 C-6.66 24.99 -7.32 25.98 -8 27 C-8.06093981 22.99828568 -8.04815691 19.00183953 -8 15 C-8.00773438 14.14535156 -8.01546875 13.29070312 -8.0234375 12.41015625 C-7.89219756 8.92036694 -7.70216636 6.81525565 -5.375 4.11328125 C-3.64350348 2.6156764 -1.90439418 1.26793868 0 0 Z " fill="#399BDD" transform="translate(532,297)"/>
<path d="M0 0 C1.07743468 3.23230404 0.97702084 3.82711663 0.00390625 6.9140625 C-0.22490234 7.67589844 -0.45371094 8.43773437 -0.68945312 9.22265625 C-1.18115376 10.80174706 -1.67585817 12.37990626 -2.17382812 13.95703125 C-3.61716959 18.78434137 -4.15710375 22.91057856 -4.00073242 27.94189453 C-3.99970724 30.82266826 -4.651447 33.36441195 -5.4375 36.125 C-5.70820312 37.14335938 -5.97890625 38.16171875 -6.2578125 39.2109375 C-6.50273438 40.13132812 -6.74765625 41.05171875 -7 42 C-8.24807173 47.76033107 -7.92575855 51.49783272 -6 57 C-4.04623619 59.01385848 -4.04623619 59.01385848 -2 60 C-5.9492568 59.44894091 -9.34920174 58.61064629 -13 57 C-13.19464163 50.39343067 -12.79360222 44.27903668 -11.4375 37.8125 C-11.26621582 36.97460938 -11.09493164 36.13671875 -10.91845703 35.2734375 C-8.40930927 23.57982161 -5.61677378 10.63077184 0 0 Z " fill="#6579DD" transform="translate(570,563)"/>
<path d="M0 0 C-25.18359541 10.8687096 -51.21179438 18.00736382 -77.99188232 23.57977295 C-80.03686542 24.00771461 -82.07916703 24.44718955 -84.12158203 24.88720703 C-85.44682135 25.1662547 -86.77217507 25.4447597 -88.09765625 25.72265625 C-89.83994507 26.09209351 -89.83994507 26.09209351 -91.61743164 26.46899414 C-95.13251384 27.02080242 -98.44780393 27.09241532 -102 27 C-98.97169729 24.98113153 -97.24659198 24.47622588 -93.7421875 23.7734375 C-92.6588916 23.55075195 -91.5755957 23.32806641 -90.45947266 23.09863281 C-89.27659668 22.85983398 -88.0937207 22.62103516 -86.875 22.375 C-84.31698314 21.83909796 -81.75961774 21.30086672 -79.203125 20.7578125 C-78.53556183 20.61613647 -77.86799866 20.47446045 -77.1802063 20.32849121 C-40.50400426 12.53728584 -40.50400426 12.53728584 -5.31933594 -0.19384766 C-3 -1 -3 -1 0 0 Z " fill="#FDECBF" transform="translate(1093,525)"/>
<path d="M0 0 C0.33 0 0.66 0 1 0 C2.08236624 9.06675846 3.07205538 18.12184781 3.67578125 27.234375 C3.72718765 28.00424744 3.77859406 28.77411987 3.83155823 29.56732178 C3.93702844 31.1503868 4.0424407 32.73345569 4.14779663 34.31652832 C5.29614519 51.28323461 7.38606577 67.82178354 10.58862305 84.52441406 C11 87 11 87 11 90 C10.01 90.495 10.01 90.495 9 91 C6.57358993 86.14717985 6.37615763 81.19229334 5.9375 75.875 C5.78306221 74.08045843 5.6256378 72.28617071 5.46484375 70.4921875 C5.399021 69.70183105 5.33319824 68.91147461 5.26538086 68.09716797 C5.04524581 65.81135922 5.04524581 65.81135922 4 63 C3.6373045 60.08554178 3.31466025 57.1798271 3.02734375 54.2578125 C2.93997452 53.3796286 2.85260529 52.5014447 2.7625885 51.59664917 C2.57826335 49.72559758 2.39598427 47.85434349 2.21557617 45.98291016 C1.94452153 43.1971633 1.65912594 40.413144 1.37304688 37.62890625 C0.12839333 25.04989842 -0.22555912 12.63616167 0 0 Z " fill="#5EACE3" transform="translate(469,303)"/>
<path d="M0 0 C0.99 0.33 1.98 0.66 3 1 C4.03197687 3.28578768 4.85660658 5.45017421 5.62890625 7.82421875 C5.86407455 8.52206985 6.09924286 9.21992096 6.34153748 9.93891907 C6.83898988 11.42582077 7.33035863 12.91476926 7.81616211 14.40551758 C8.5467329 16.63929094 9.30188546 18.86352612 10.06054688 21.08789062 C13.05236403 30.03336771 15.05437351 38.58028559 16 48 C13.6870518 45.6870518 13.50419025 44.52095125 12.875 41.375 C12.70742188 40.55773437 12.53984375 39.74046875 12.3671875 38.8984375 C12.24601563 38.27195312 12.12484375 37.64546875 12 37 C11.34 37 10.68 37 10 37 C-0.25186178 10.14854832 -0.25186178 10.14854832 0 0 Z " fill="#D09CCE" transform="translate(657,519)"/>
<path d="M0 0 C0 0.33 0 0.66 0 1 C2.97 1.33 5.94 1.66 9 2 C9 2.33 9 2.66 9 3 C7.16888672 3.03867187 7.16888672 3.03867187 5.30078125 3.078125 C-12.00346423 3.6051668 -25.8421493 7.22718622 -39 19 C-40.32 18.34 -41.64 17.68 -43 17 C-37.70528717 11.95041276 -32.81812227 7.73953381 -26 5 C-25.10925781 4.64035156 -24.21851563 4.28070313 -23.30078125 3.91015625 C-15.41836297 0.88838335 -8.39919413 -0.14735428 0 0 Z " fill="#FEF6EB" transform="translate(762,429)"/>
<path d="M0 0 C0.66 0.33 1.32 0.66 2 1 C1.10861328 1.70962891 1.10861328 1.70962891 0.19921875 2.43359375 C-2.5379243 4.61734863 -5.26896656 6.80861001 -8 9 C-8.93457031 9.74378906 -9.86914062 10.48757813 -10.83203125 11.25390625 C-16.57117086 15.86929825 -21.92383196 20.66202387 -27 26 C-27.59375 24.17578125 -27.59375 24.17578125 -28 22 C-26.77381526 19.70090361 -25.63149148 17.9892747 -24 16 C-23.55914063 15.45214844 -23.11828125 14.90429688 -22.6640625 14.33984375 C-16.87501634 7.88961212 -8.20107061 2.7336902 0 0 Z " fill="#EEF6FA" transform="translate(559,292)"/>
<path d="M0 0 C1.29525831 3.88577492 0.36766573 5.35917075 -0.875 9.25 C-4.63085524 22.27114838 -3.853117 36.55767281 -4 50 C-4.33 50 -4.66 50 -5 50 C-5.33 44.39 -5.66 38.78 -6 33 C-6.99 33.495 -6.99 33.495 -8 34 C-9.03802187 37.92141595 -9.4489073 41.98489604 -10 46 C-10.33 46 -10.66 46 -11 46 C-11.37961932 38.76074779 -9.96818745 32.27756336 -8.3125 25.25 C-8.06822266 24.1465625 -7.82394531 23.043125 -7.57226562 21.90625 C-5.79245433 14.22827925 -3.24845841 7.17695882 0 0 Z " fill="#FDBD36" transform="translate(398,423)"/>
<path d="M0 0 C0 0.33 0 0.66 0 1 C-0.98097656 1.01417969 -1.96195313 1.02835937 -2.97265625 1.04296875 C-18.14013287 1.48634033 -33.13024358 5.14577731 -44.23046875 16.2265625 C-45.89392873 18.10584064 -47.4805305 20.00342745 -49 22 C-49.33 21.01 -49.66 20.02 -50 19 C-44.36101224 12.10790385 -39.02723038 6.92795877 -31 3 C-29.824375 2.36384766 -29.824375 2.36384766 -28.625 1.71484375 C-19.53823946 -2.47358493 -9.68477013 -0.90514531 0 0 Z " fill="#F1FAEF" transform="translate(917,471)"/>
<path d="M0 0 C-2.16376292 7.91620582 -4.9698825 13.313255 -12 18 C-12.66 17.67 -13.32 17.34 -14 17 C-10.7 13.7 -7.4 10.4 -4 7 C-9.91226186 11.22304419 -14.96641688 15.77323032 -20 21 C-20.99758163 22.00241253 -21.99717914 23.00282884 -23 24 C-23.66 24.66 -24.32 25.32 -25 26 C-25.3125 23.75 -25.3125 23.75 -25 21 C-22.9375 19.1875 -22.9375 19.1875 -20 17 C-18.93629091 15.78985823 -17.89673789 14.55828161 -16.875 13.3125 C-5.51800847 0 -5.51800847 0 0 0 Z " fill="#7B6CDC" transform="translate(584,505)"/>
<path d="M0 0 C-0.99 0.66 -1.98 1.32 -3 2 C-0.36 2 2.28 2 5 2 C2.25249116 4.74750884 -0.0676549 4.80198266 -3.87109375 5.54296875 C-4.88829247 5.74204582 -4.88829247 5.74204582 -5.92604065 5.94514465 C-7.36019475 6.22367893 -8.79511451 6.49829522 -10.23071289 6.76928711 C-12.42768345 7.18563964 -14.62099977 7.6182775 -16.81445312 8.05273438 C-18.20814359 8.32129903 -19.6020184 8.5889092 -20.99609375 8.85546875 C-22.26638428 9.09934326 -23.5366748 9.34321777 -24.84545898 9.59448242 C-28 10 -28 10 -31 9 C-29.02 8.34 -27.04 7.68 -25 7 C-25.99 6.34 -26.98 5.68 -28 5 C-24.46082426 4.15584238 -20.91830859 3.32662306 -17.375 2.5 C-16.37597656 2.26152344 -15.37695312 2.02304687 -14.34765625 1.77734375 C-9.48858446 0.65106883 -5.02675656 -0.34312331 0 0 Z " fill="#FD9D21" transform="translate(882,698)"/>
<path d="M0 0 C-3.3224554 2.21497027 -5.44492647 2.59789653 -9.35546875 3.25390625 C-10.61810547 3.46853516 -11.88074219 3.68316406 -13.18164062 3.90429688 C-14.51692464 4.12371281 -15.85221111 4.34311374 -17.1875 4.5625 C-18.50336082 4.78518414 -19.81911738 5.00848523 -21.13476562 5.23242188 C-30.14571935 6.74721399 -38.8501115 8.14419543 -48 8.0625 C-49.01900391 8.05573242 -49.01900391 8.05573242 -50.05859375 8.04882812 C-51.70576874 8.0372283 -53.35289726 8.01930199 -55 8 C-52.66002735 5.66002735 -52.08906347 5.71206825 -48.90625 5.5078125 C-48.05281006 5.4444873 -47.19937012 5.38116211 -46.32006836 5.31591797 C-45.3894458 5.25291504 -44.45882324 5.18991211 -43.5 5.125 C-33.43246105 4.34336664 -23.53184448 2.96035107 -13.5703125 1.32080078 C-12.52488281 1.1504834 -11.47945312 0.98016602 -10.40234375 0.8046875 C-9.47929443 0.64983887 -8.55624512 0.49499023 -7.60522461 0.33544922 C-5.03787069 0.00487624 -2.58526503 -0.06012923 0 0 Z " fill="#FDBE3F" transform="translate(807,667)"/>
<path d="M0 0 C0.33 0 0.66 0 1 0 C1.21914063 1.21171875 1.43828125 2.4234375 1.6640625 3.671875 C3.71517157 14.63355798 6.37837977 25.20487739 9.73046875 35.83984375 C10.68232739 38.87216452 11.47341552 41.85952631 12 45 C12.99 45.33 13.98 45.66 15 46 C15 48.31 15 50.62 15 53 C7.73636867 45.73636867 5.14583957 30.64514782 2.5625 21 C2.17433105 19.58714722 2.17433105 19.58714722 1.77832031 18.14575195 C0.19723262 11.9921977 -0.31739696 6.34449858 0 0 Z " fill="#84EBF7" transform="translate(365,517)"/>
<path d="M0 0 C0.33 0 0.66 0 1 0 C2.90833885 16.00781328 4.22697126 31.85982159 4 48 C3.67 48 3.34 48 3 48 C2.68635572 45.37513237 2.37406661 42.75011442 2.0625 40.125 C1.97548828 39.39796875 1.88847656 38.6709375 1.79882812 37.921875 C1.52568437 35.61532769 1.26209144 33.30782775 1 31 C0.90517334 30.2044873 0.81034668 29.40897461 0.71264648 28.58935547 C0.01410115 22.33281902 -0.11993718 16.16658024 -0.0625 9.875 C-0.05798828 8.91851562 -0.05347656 7.96203125 -0.04882812 6.9765625 C-0.03720017 4.65097242 -0.02086102 2.3255224 0 0 Z " fill="#A6DEF4" transform="translate(469,303)"/>
<path d="M0 0 C-0.33 0.66 -0.66 1.32 -1 2 C-3.44143265 2.60797283 -5.81343766 3.09006494 -8.2890625 3.5078125 C-9.02571136 3.63815887 -9.76236023 3.76850525 -10.52133179 3.90280151 C-12.0859101 4.17756409 -13.65126134 4.4479551 -15.21728516 4.71435547 C-17.59616309 5.12008176 -19.97189561 5.54128917 -22.34765625 5.96484375 C-23.86962863 6.2301038 -25.39175976 6.49445497 -26.9140625 6.7578125 C-27.97072617 6.94526535 -27.97072617 6.94526535 -29.04873657 7.13650513 C-33.44775286 7.87516082 -37.56124143 8.11507625 -42 8 C-42 7.67 -42 7.34 -42 7 C-36.66385123 5.83105324 -31.32536297 4.67373332 -25.984375 3.52709961 C-24.16792993 3.13542864 -22.35216414 2.74059341 -20.53710938 2.3425293 C-17.92750573 1.77078627 -15.31566791 1.21048077 -12.703125 0.65234375 C-11.89256653 0.47219223 -11.08200806 0.29204071 -10.24688721 0.10643005 C-6.46687623 -0.69005331 -3.69586365 -1.13557344 0 0 Z " fill="#DBF4F9" transform="translate(542,228)"/>
<path d="M0 0 C0.33 0 0.66 0 1 0 C1.63851279 12.82346518 0.63741764 25.68383661 -8 36 C-8.99 36.66 -9.98 37.32 -11 38 C-9.92851916 35.84707106 -8.84618418 33.70099355 -7.74609375 31.5625 C-7.31425781 30.716875 -6.88242187 29.87125 -6.4375 29 C-6.00308594 28.154375 -5.56867187 27.30875 -5.12109375 26.4375 C-3.51865315 22.95344797 -2.88984191 19.81464998 -2.75390625 15.99609375 C-2.72103516 15.25552734 -2.68816406 14.51496094 -2.65429688 13.75195312 C-2.59295019 12.20523363 -2.53567778 10.65834733 -2.48242188 9.11132812 C-2.30542765 5.28090588 -2.17023606 3.2553541 0 0 Z " fill="#CE88D0" transform="translate(653,394)"/>
<path d="M0 0 C12.15364991 -0.08452263 24.28864483 0.1830641 36.4375 0.5 C38.34439667 0.5483498 40.2512977 0.59652798 42.15820312 0.64453125 C46.77218794 0.76104744 51.38610797 0.87986819 56 1 C56 1.33 56 1.66 56 2 C28.775 2.495 28.775 2.495 1 3 C0.67 2.01 0.34 1.02 0 0 Z " fill="#FDCF6A" transform="translate(658,670)"/>
<path d="M0 0 C-1.49131218 0.97179769 -2.99362912 1.92671231 -4.5 2.875 C-5.3353125 3.40867187 -6.170625 3.94234375 -7.03125 4.4921875 C-9.93309055 5.96601704 -12.63641861 6.68587453 -15.79638672 7.40136719 C-20.85775409 8.77633648 -25.60282201 11.19137514 -30.37304688 13.34179688 C-31.59024414 13.87450195 -31.59024414 13.87450195 -32.83203125 14.41796875 C-33.92608276 14.90946411 -33.92608276 14.90946411 -35.04223633 15.41088867 C-37 16 -37 16 -40 15 C-39.19892822 14.65743164 -38.39785645 14.31486328 -37.57250977 13.96191406 C-34.55862201 12.67270394 -31.54497975 11.38292314 -28.53149414 10.09277344 C-27.23504037 9.53786229 -25.93849327 8.98316911 -24.6418457 8.42871094 C-23.38220267 7.8900446 -22.12271027 7.35102586 -20.8633728 6.81164551 C-19.02817153 6.02601274 -17.19206989 5.24248428 -15.35595703 4.45898438 C-11.78095763 2.9047725 -8.25310768 1.26689853 -4.74975586 -0.44238281 C-3 -1 -3 -1 0 0 Z " fill="#FDCE6C" transform="translate(931,628)"/>
<path d="M0 0 C0.99 0.33 1.98 0.66 3 1 C-1.4081905 4.58831272 -6.16793424 6.02911573 -11.5 7.8125 C-12.45003906 8.14958984 -13.40007813 8.48667969 -14.37890625 8.83398438 C-15.29542969 9.14271484 -16.21195313 9.45144531 -17.15625 9.76953125 C-17.98962891 10.05417236 -18.82300781 10.33881348 -19.68164062 10.63208008 C-22.48237087 11.07655149 -23.64467185 10.49444081 -26 9 C-25.2479126 8.76289307 -24.4958252 8.52578613 -23.72094727 8.28149414 C-20.33378172 7.21168355 -16.94813067 6.13715759 -13.5625 5.0625 C-12.37849609 4.68931641 -11.19449219 4.31613281 -9.97460938 3.93164062 C-8.84990234 3.57392578 -7.72519531 3.21621094 -6.56640625 2.84765625 C-5.52427979 2.51773682 -4.48215332 2.18781738 -3.40844727 1.84790039 C-1.07858732 1.22264341 -1.07858732 1.22264341 0 0 Z " fill="#1496E5" transform="translate(593,274)"/>
<path d="M0 0 C10.5856488 2.07932387 20.78713457 5.56923961 31 9 C27.16678015 10.41894941 24.36834009 9.5727063 20.484375 8.56640625 C19.23398437 8.24736328 17.98359375 7.92832031 16.6953125 7.59960938 C15.38015475 7.25411016 14.06505124 6.9084044 12.75 6.5625 C11.41949337 6.21983789 10.08876611 5.87803121 8.7578125 5.53710938 C5.50293762 4.6998046 2.25057982 3.85379955 -1 3 C-0.67 2.01 -0.34 1.02 0 0 Z " fill="#D2F6FB" transform="translate(907,208)"/>
<path d="M0 0 C0.33 0.66 0.66 1.32 1 2 C1.66 2 2.32 2 3 2 C2.33654156 7.25727825 0.74419696 11.92859068 -1.0625 16.875 C-1.34416016 17.65875 -1.62582031 18.4425 -1.91601562 19.25 C-2.60613782 21.16830576 -3.30244316 23.08438519 -4 25 C-4.33 25 -4.66 25 -5 25 C-4.38580826 16.40131562 -2.19092979 8.30515248 0 0 Z " fill="#DEDEF7" transform="translate(543,565)"/>
<path d="M0 0 C0.66 0.33 1.32 0.66 2 1 C2 8.59 2 16.18 2 24 C1.67 24 1.34 24 1 24 C0.67 18.39 0.34 12.78 0 7 C-0.99 7.495 -0.99 7.495 -2 8 C-3.03802187 11.92141595 -3.4489073 15.98489604 -4 20 C-4.33 20 -4.66 20 -5 20 C-5.51580179 5.81545064 -5.51580179 5.81545064 -1.42578125 1.23828125 C-0.95527344 0.82964844 -0.48476563 0.42101562 0 0 Z " fill="#FDCB55" transform="translate(392,449)"/>
<path d="M0 0 C2.10147157 3.15220735 2.3221602 4.46798841 2.75 8.125 C3.69882292 14.53151509 5.72330836 20.29002425 8.05566406 26.29931641 C10.10093704 31.69718887 10.10093704 31.69718887 9 35 C7.87066607 31.98076952 6.74733369 28.95933893 5.625 25.9375 C5.14933594 24.66616211 5.14933594 24.66616211 4.6640625 23.36914062 C-0.30643543 9.95915142 -0.30643543 9.95915142 -0.125 4.0625 C-0.10695313 3.29035156 -0.08890625 2.51820313 -0.0703125 1.72265625 C-0.04710937 1.15417969 -0.02390625 0.58570313 0 0 Z " fill="#BE85C5" transform="translate(658,521)"/>
<path d="M0 0 C1.36995117 0.0918457 1.36995117 0.0918457 2.76757812 0.18554688 C4.99253012 0.3369834 7.21495986 0.50450499 9.4375 0.6875 C9.4375 1.0175 9.4375 1.3475 9.4375 1.6875 C7.89642578 1.74357422 7.89642578 1.74357422 6.32421875 1.80078125 C-2.00511095 2.17233863 -9.59651469 3.00404309 -17.5625 5.6875 C-17.5625 5.0275 -17.5625 4.3675 -17.5625 3.6875 C-18.2225 3.3575 -18.8825 3.0275 -19.5625 2.6875 C-12.80279342 -0.13601797 -7.25212952 -0.60124038 0 0 Z " fill="#DAF2D5" transform="translate(907.5625,470.3125)"/>
<path d="M0 0 C4.9723422 1.49170266 9.41845739 3.60457417 14 6 C13.54625 6.433125 13.0925 6.86625 12.625 7.3125 C10.79975666 9.10798342 10.79975666 9.10798342 9 12 C7.49405319 10.38050958 5.99539332 8.75424026 4.5 7.125 C3.6646875 6.22007812 2.829375 5.31515625 1.96875 4.3828125 C0 2 0 2 0 0 Z " fill="#28B7F1" transform="translate(979,326)"/>
<path d="M0 0 C1.18073729 3.54221188 0.76791456 5.26680054 0.07421875 8.91015625 C-0.14556641 10.06451172 -0.36535156 11.21886719 -0.59179688 12.40820312 C-0.82962891 13.61412109 -1.06746094 14.82003906 -1.3125 16.0625 C-1.53873047 17.27228516 -1.76496094 18.48207031 -1.99804688 19.72851562 C-2.22169922 20.88158203 -2.44535156 22.03464844 -2.67578125 23.22265625 C-2.88114502 24.28234619 -3.08650879 25.34203613 -3.2980957 26.43383789 C-4 29 -4 29 -6 31 C-3.60385757 7.20771513 -3.60385757 7.20771513 0 0 Z " fill="#FCE0AF" transform="translate(1040,632)"/>
<path d="M0 0 C0.66 0.66 1.32 1.32 2 2 C1.84287567 4.6444322 1.57816085 7.13935627 1.1875 9.75 C1.09146484 10.45382812 0.99542969 11.15765625 0.89648438 11.8828125 C0.33549004 15.93401989 -0.30911961 19.96880802 -1 24 C-1.66 24 -2.32 24 -3 24 C-3.43630637 15.71017896 -1.77967263 8.04030671 0 0 Z " fill="#3F5DD5" transform="translate(560,595)"/>
<path d="M0 0 C2 2 2 2 2.375 4 C2.80999318 6.20176337 2.80999318 6.20176337 5.0390625 7.125 C5.68617188 7.41375 6.33328125 7.7025 7 8 C-2.96848573 10.33636384 -12.83525606 11.87791788 -23 13 C-22.67 12.34 -22.34 11.68 -22 11 C-19.86694336 10.49755859 -19.86694336 10.49755859 -17.08984375 10.1484375 C-16.10048828 10.01953125 -15.11113281 9.890625 -14.09179688 9.7578125 C-13.05087891 9.63148438 -12.00996094 9.50515625 -10.9375 9.375 C-9.89271484 9.2409375 -8.84792969 9.106875 -7.77148438 8.96875 C-5.18191139 8.63766304 -2.5915538 8.31514204 0 8 C0 5.36 0 2.72 0 0 Z " fill="#3FBD80" transform="translate(969,513)"/>
<path d="M0 0 C0 0.33 0 0.66 0 1 C2.97 1.33 5.94 1.66 9 2 C9 2.33 9 2.66 9 3 C7.02966797 3.09087891 7.02966797 3.09087891 5.01953125 3.18359375 C3.28384459 3.26803256 1.54816802 3.35267888 -0.1875 3.4375 C-1.48397461 3.49647461 -1.48397461 3.49647461 -2.80664062 3.55664062 C-6.95914122 3.76347016 -10.94537862 4.00103531 -15 5 C-15 4.34 -15 3.68 -15 3 C-16.32 2.67 -17.64 2.34 -19 2 C-12.56971459 0.67611771 -6.5705166 -0.24794402 0 0 Z " fill="#FEEECD" transform="translate(762,429)"/>
<path d="M0 0 C-1.59043379 5.08938811 -4.7446951 8.87456643 -8 13 C-8.66 12.67 -9.32 12.34 -10 12 C-10.2421875 9.73828125 -10.2421875 9.73828125 -10 7 C-8.3203125 4.98046875 -8.3203125 4.98046875 -6.125 3.1875 C-5.04605469 2.28064453 -5.04605469 2.28064453 -3.9453125 1.35546875 C-2 0 -2 0 0 0 Z " fill="#6DC647" transform="translate(880,482)"/>
<path d="M0 0 C0.33 0.99 0.66 1.98 1 3 C1.66 3 2.32 3 3 3 C0.42867609 11.69651012 -2.28412724 20.347852 -5 29 C-5.66 28.67 -6.32 28.34 -7 28 C-6.66226563 26.81664062 -6.32453125 25.63328125 -5.9765625 24.4140625 C-3.68477007 16.31702374 -1.47163038 8.29464397 0 0 Z " fill="#81CD4A" transform="translate(862,514)"/>
<path d="M0 0 C0 0.33 0 0.66 0 1 C-1.7634375 1.0309375 -1.7634375 1.0309375 -3.5625 1.0625 C-9.16710302 1.63276167 -13.74273034 4.00850965 -18.68188477 6.56079102 C-22.28393076 8.38232573 -24.94302995 9.42582701 -29 9 C-25.61423177 5.61423177 -21.09140539 4.16068582 -16.75 2.25 C-15.80769531 1.81300781 -14.86539063 1.37601563 -13.89453125 0.92578125 C-5.26532265 -2.86235661 -5.26532265 -2.86235661 0 0 Z " fill="#30E3F8" transform="translate(775,167)"/>
<path d="M0 0 C0.66 0.33 1.32 0.66 2 1 C-1.33333333 4.33333333 -4.66666667 7.66666667 -8 11 C-8.721875 11.7425 -9.44375 12.485 -10.1875 13.25 C-12.02402063 15.02319233 -13.66608272 15.99974974 -16 17 C-13.02550302 10.00118357 -5.98898148 4.44343788 0 0 Z " fill="#E6E2F8" transform="translate(579,511)"/>
<path d="M0 0 C-2.69527268 1.44498979 -5.17079975 2.40241924 -8.15234375 3.0703125 C-9.31733398 3.33134766 -9.31733398 3.33134766 -10.50585938 3.59765625 C-11.70952148 3.85869141 -11.70952148 3.85869141 -12.9375 4.125 C-13.73607422 4.30675781 -14.53464844 4.48851562 -15.35742188 4.67578125 C-19.30010728 5.54467464 -22.93527308 6.24634709 -27 6 C-24.07071344 3.07071344 -20.48904212 2.79025027 -16.5625 1.9375 C-15.02188271 1.59357797 -13.48150776 1.24856812 -11.94140625 0.90234375 C-10.91575562 0.67792603 -10.91575562 0.67792603 -9.86938477 0.44897461 C-3.97459038 -0.96679225 -3.97459038 -0.96679225 0 0 Z " fill="#FDBA36" transform="translate(848,658)"/>
<path d="M0 0 C0.66 0.33 1.32 0.66 2 1 C1.04882866 2.1725131 0.08882991 3.33787015 -0.875 4.5 C-1.67550781 5.47453125 -1.67550781 5.47453125 -2.4921875 6.46875 C-2.98976563 6.9740625 -3.48734375 7.479375 -4 8 C-4.66 8 -5.32 8 -6 8 C-6.66 7.34 -7.32 6.68 -8 6 C-10.31 6.66 -12.62 7.32 -15 8 C-15 7.34 -15 6.68 -15 6 C-12.54524486 4.96971956 -10.08685649 3.95054496 -7.625 2.9375 C-6.57699219 2.49567383 -6.57699219 2.49567383 -5.5078125 2.04492188 C-3.69495092 1.30408902 -1.84876857 0.64603036 0 0 Z " fill="#1F57CE" transform="translate(962,705)"/>
<path d="M0 0 C0.33 0.66 0.66 1.32 1 2 C0.07421875 4.13671875 0.07421875 4.13671875 -1.3125 6.6875 C-3.44819899 10.77499057 -4.92984731 14.52481602 -6 19 C-7.32 18.67 -8.64 18.34 -10 18 C-8.5216233 13.98832453 -6.60821705 10.42979591 -4.4375 6.75 C-3.81746094 5.69296875 -3.19742187 4.6359375 -2.55859375 3.546875 C-1 1 -1 1 0 0 Z " fill="#38D9F9" transform="translate(379,435)"/>
<path d="M0 0 C-7.25568991 4.83712661 -17.43885889 5.43956413 -26 6 C-22.41582018 3.9856002 -18.63326562 2.93085403 -14.6875 1.875 C-14.04876953 1.69324219 -13.41003906 1.51148438 -12.75195312 1.32421875 C-8.40858119 0.15366461 -4.48591172 -0.17409748 0 0 Z " fill="#15A1E8" transform="translate(655,259)"/>
<path d="M0 0 C1.34873892 4.04621677 0.17019544 5.28863444 -1.6875 9.0625 C-4.36615021 14.63209438 -6.78638555 20.23158116 -9 26 C-10.46826768 22.17525333 -9.48708986 20.03357519 -7.875 16.375 C-7.41480469 15.32570313 -6.95460938 14.27640625 -6.48046875 13.1953125 C-4.41854002 8.74502833 -2.26245942 4.35162408 0 0 Z " fill="#6168DA" transform="translate(556,544)"/>
<path d="M0 0 C1.79244141 0.01740234 1.79244141 0.01740234 3.62109375 0.03515625 C5.41740234 0.04869141 5.41740234 0.04869141 7.25 0.0625 C8.17683594 0.07410156 9.10367188 0.08570313 10.05859375 0.09765625 C3.43511478 4.5133089 -6.13825166 4.40366231 -13.94140625 4.09765625 C-13.61140625 3.43765625 -13.28140625 2.77765625 -12.94140625 2.09765625 C-10.91015625 1.71875 -10.91015625 1.71875 -8.44140625 1.53515625 C-5.14811552 1.279822 -3.13459608 0.10407026 0 0 Z " fill="#F95849" transform="translate(764.94140625,639.90234375)"/>
<path d="M0 0 C0 0.33 0 0.66 0 1 C-2.85305129 1.50720912 -5.70716814 2.00593634 -8.5625 2.5 C-9.36236328 2.64308594 -10.16222656 2.78617188 -10.98632812 2.93359375 C-15.73524598 3.74769395 -20.18246077 4.15519589 -25 4 C-25 3.67 -25 3.34 -25 3 C-21.96226226 2.29431292 -18.91940628 1.61378673 -15.875 0.9375 C-15.0190625 0.73833984 -14.163125 0.53917969 -13.28125 0.33398438 C-8.52675747 -0.70834668 -4.81896722 -1.25609146 0 0 Z " fill="#B6F0F8" transform="translate(525,232)"/>
<path d="M0 0 C-5.92238099 2.80590203 -11.63416618 5.40854155 -18 7 C-18.99 7.33 -19.98 7.66 -21 8 C-23.1875 7.5625 -23.1875 7.5625 -25 7 C-21.40134792 5.63084588 -17.79531881 4.28229369 -14.1875 2.9375 C-12.65125977 2.35258789 -12.65125977 2.35258789 -11.08398438 1.75585938 C-10.10107422 1.39169922 -9.11816406 1.02753906 -8.10546875 0.65234375 C-6.74651489 0.14175415 -6.74651489 0.14175415 -5.36010742 -0.37915039 C-3 -1 -3 -1 0 0 Z " fill="#FCC02E" transform="translate(1089,528)"/>
<path d="M0 0 C1.8141927 0.28094582 3.62635001 0.57506433 5.4375 0.875 C6.95150391 1.11863281 6.95150391 1.11863281 8.49609375 1.3671875 C9.32238281 1.57601562 10.14867187 1.78484375 11 2 C11.33 2.66 11.66 3.32 12 4 C4.74 4 -2.52 4 -10 4 C-10 3.67 -10 3.34 -10 3 C-4.06 2.505 -4.06 2.505 2 2 C1.34 1.34 0.68 0.68 0 0 Z " fill="#0E92DC" transform="translate(548,711)"/>
<path d="M0 0 C0.66 0 1.32 0 2 0 C1.67 0.66 1.34 1.32 1 2 C0.67 1.34 0.34 0.68 0 0 Z M0 2 C1 5 1 5 -0.5 8.3125 C-2.95281613 12.37173796 -6.26935451 15.13913983 -10 18 C-10.66 17.67 -11.32 17.34 -12 17 C-10.95199219 16.00419922 -10.95199219 16.00419922 -9.8828125 14.98828125 C-8.97273437 14.10527344 -8.06265625 13.22226562 -7.125 12.3125 C-5.76761719 11.00732422 -5.76761719 11.00732422 -4.3828125 9.67578125 C-2.10736018 7.12056021 -1.01295648 5.23098186 0 2 Z " fill="#8F73DB" transform="translate(582,505)"/>
<path d="M0 0 C0.66 0.33 1.32 0.66 2 1 C-0.75083522 4.87154586 -2.63213294 6.33605064 -7 8 C-9.10877157 9.56537653 -11.0288586 11.25806109 -13 13 C-11.50536684 9.3852622 -9.4391696 7.35564512 -6.5 4.8125 C-5.7059375 4.11769531 -4.911875 3.42289062 -4.09375 2.70703125 C-2 1 -2 1 0 0 Z " fill="#B1E48D" transform="translate(892,351)"/>
<path d="M0 0 C5.24446182 -0.11026464 10.24360953 0.29671017 15.4375 1 C16.16904297 1.09539063 16.90058594 1.19078125 17.65429688 1.2890625 C19.436723 1.52205938 21.21844104 1.76046266 23 2 C23 2.33 23 2.66 23 3 C16.565 3.495 16.565 3.495 10 4 C10 3.34 10 2.68 10 2 C8.9171875 2.309375 8.9171875 2.309375 7.8125 2.625 C4.55358415 3.05952211 2.91695496 2.41680669 0 1 C0 0.67 0 0.34 0 0 Z " fill="#FDC347" transform="translate(625,666)"/>
<path d="M0 0 C0 0.66 0 1.32 0 2 C-1.546875 2.433125 -1.546875 2.433125 -3.125 2.875 C-5.50639075 3.54716674 -7.79175865 4.28503311 -10.125 5.125 C-12.9319208 5.97928024 -15.08933374 6.17121566 -18 6 C-15.52621876 3.52621876 -13.43825655 2.96861769 -10.125 1.875 C-9.07570313 1.52179688 -8.02640625 1.16859375 -6.9453125 0.8046875 C-4 0 -4 0 0 0 Z " fill="#0B97E7" transform="translate(482,234)"/>
<path d="M0 0 C4.67601563 4.67601563 4.40072737 13.70763744 5 20 C4.34 19.67 3.68 19.34 3 19 C2.1484375 16.015625 2.1484375 16.015625 1.375 12.25 C0.98441406 10.40148437 0.98441406 10.40148437 0.5859375 8.515625 C0.09591349 5.57548094 -0.12452174 2.96588137 0 0 Z " fill="#FD5838" transform="translate(715,571)"/>
<path d="M0 0 C0.66 0.33 1.32 0.66 2 1 C0.91596829 4.25209513 0.20008284 4.91385694 -2.375 7 C-4.70711035 8.90538378 -6.90195513 10.83759792 -9 13 C-8.41273335 9.37036582 -6.95905107 7.49830783 -4.5 4.8125 C-3.8709375 4.11769531 -3.241875 3.42289062 -2.59375 2.70703125 C-1.74091381 1.79357681 -0.88366526 0.88366526 0 0 Z " fill="#DFF4DC" transform="translate(876,480)"/>
<path d="M0 0 C4.95 0 9.9 0 15 0 C15 0.66 15 1.32 15 2 C10.38 2.33 5.76 2.66 1 3 C0.67 2.01 0.34 1.02 0 0 Z " fill="#FDC552" transform="translate(658,670)"/>
<path d="M0 0 C0.33 0 0.66 0 1 0 C1.10477512 5.78591511 0.99250545 11.29309366 0 17 C-2.33515692 13.49726462 -2.13947892 12.55147373 -1.6875 8.5 C-1.58824219 7.5409375 -1.48898437 6.581875 -1.38671875 5.59375 C-1 3 -1 3 0 0 Z " fill="#D0EBF6" transform="translate(1069,365)"/>
<path d="M0 0 C1.13199353 0.9080162 2.25532363 1.82683826 3.375 2.75 C4.00148438 3.26046875 4.62796875 3.7709375 5.2734375 4.296875 C7.08312318 6.08199481 8.00117455 7.67949644 9 10 C7.02 11.32 5.04 12.64 3 14 C3.350625 13.4225 3.70125 12.845 4.0625 12.25 C5.15379646 10.09716618 5.15379646 10.09716618 4.875 8 C3.74631819 5.42015587 2.00792475 3.94315299 0 2 C0 1.34 0 0.68 0 0 Z " fill="#296ED8" transform="translate(546,454)"/>
<path d="M0 0 C1.485 0.99 1.485 0.99 3 2 C3.67904468 5.39522342 4 8.53993431 4 12 C3.01 12.495 3.01 12.495 2 13 C-0.24828052 8.50343896 -0.16682272 4.92127034 0 0 Z " fill="#328CDC" transform="translate(476,381)"/>
<path d="M0 0 C2.64 0 5.28 0 8 0 C8.33 0.99 8.66 1.98 9 3 C5.7 3.66 2.4 4.32 -1 5 C-0.67 3.35 -0.34 1.7 0 0 Z " fill="#0D96E4" transform="translate(455,238)"/>
<path d="M0 0 C0 0.66 0 1.32 0 2 C-0.60328125 2.13277344 -1.2065625 2.26554687 -1.828125 2.40234375 C-2.62734375 2.57894531 -3.4265625 2.75554687 -4.25 2.9375 C-5.03890625 3.11152344 -5.8278125 3.28554688 -6.640625 3.46484375 C-8.96260997 3.96051836 -8.96260997 3.96051836 -11.046875 4.62890625 C-13.32716718 5.06216176 -14.81052227 4.7037607 -17 4 C-14.91891315 3.32635339 -12.8350329 2.66133202 -10.75 2 C-9.58984375 1.62875 -8.4296875 1.2575 -7.234375 0.875 C-4 0 -4 0 0 0 Z " fill="#FCAD3F" transform="translate(756,432)"/>
<path d="M0 0 C0 0.66 0 1.32 0 2 C-1.26607607 2.53229326 -2.53810412 3.05044544 -3.8125 3.5625 C-4.52019531 3.85253906 -5.22789062 4.14257812 -5.95703125 4.44140625 C-8 5 -8 5 -11 4 C-7.26280719 0.48264206 -5.13496308 -0.47767098 0 0 Z " fill="#FDF9F2" transform="translate(747,432)"/>
<path d="M0 0 C-2.55022856 2.97526665 -5.40293526 4.50122302 -9 6 C-9.99 5.67 -10.98 5.34 -12 5 C-10.68 4.34 -9.36 3.68 -8 3 C-8.33 2.34 -8.66 1.68 -9 1 C-5.64919071 -1.10976881 -3.77897651 -1.0497157 0 0 Z " fill="#FC8726" transform="translate(951,676)"/>
<path d="M0 0 C-1.57643318 1.01084265 -3.1614517 2.00830511 -4.75 3 C-5.63171875 3.556875 -6.5134375 4.11375 -7.421875 4.6875 C-10 6 -10 6 -14 6 C-14 5.34 -14 4.68 -14 4 C-12.23494565 3.13395466 -10.46271926 2.28251358 -8.6875 1.4375 C-7.70136719 0.96183594 -6.71523438 0.48617187 -5.69921875 -0.00390625 C-3 -1 -3 -1 0 0 Z " fill="#FDBC51" transform="translate(931,628)"/>
<path d="M0 0 C0.66 0.33 1.32 0.66 2 1 C-0.64 2.98 -3.28 4.96 -6 7 C-6.99 6.01 -7.98 5.02 -9 4 C-7.54618103 3.30300448 -6.08677047 2.61766134 -4.625 1.9375 C-3.40683594 1.36322266 -3.40683594 1.36322266 -2.1640625 0.77734375 C-1.44992187 0.52082031 -0.73578125 0.26429688 0 0 Z " fill="#DDECF6" transform="translate(559,292)"/>
<path d="M0 0 C-2.6009193 2.49688253 -3.89504983 2.99079384 -7.5625 3.3125 C-11 3 -11 3 -14 1 C-12.41913952 0.63495397 -10.83516093 0.28339494 -9.25 -0.0625 C-8.36828125 -0.25972656 -7.4865625 -0.45695313 -6.578125 -0.66015625 C-4.01320972 -0.99825872 -2.42908361 -0.81158635 0 0 Z " fill="#2895E4" transform="translate(561,213)"/>
<path d="M0 0 C2.64 0.99 5.28 1.98 8 3 C7.01 4.485 7.01 4.485 6 6 C3.375 6.1875 3.375 6.1875 1 6 C0.67 4.02 0.34 2.04 0 0 Z " fill="#1CD6FA" transform="translate(810,158)"/>
<path d="M0 0 C0.66 0.66 1.32 1.32 2 2 C1.9765625 4.1640625 1.9765625 4.1640625 1.625 6.625 C1.51414062 7.44226563 1.40328125 8.25953125 1.2890625 9.1015625 C1.19367187 9.72804688 1.09828125 10.35453125 1 11 C0.01 11.33 -0.98 11.66 -2 12 C-1 3.42857143 -1 3.42857143 0 0 Z " fill="#4D66D1" transform="translate(560,595)"/>
<path d="M0 0 C-1.65356922 3.58273331 -3.67980703 6.80973467 -6 10 C-6.66 10 -7.32 10 -8 10 C-6.83833955 5.74057835 -5.25202969 0 0 0 Z " fill="#6DC74F" transform="translate(866,471)"/>
<path d="M0 0 C0.66 0.33 1.32 0.66 2 1 C2 3.31 2 5.62 2 8 C1.34 8 0.68 8 0 8 C0 8.66 0 9.32 0 10 C-0.66 10 -1.32 10 -2 10 C-1.34 6.7 -0.68 3.4 0 0 Z " fill="#38A4EA" transform="translate(993,403)"/>
<path d="M0 0 C-2.49031084 2.07525903 -4.29089974 3.00649557 -7.55859375 2.9765625 C-10.05338223 2.71469818 -12.52365349 2.39910051 -15 2 C-15 1.67 -15 1.34 -15 1 C-13.25215171 0.63536268 -11.50159498 0.2836922 -9.75 -0.0625 C-8.28820312 -0.35833984 -8.28820312 -0.35833984 -6.796875 -0.66015625 C-4.131881 -0.98397535 -2.51128277 -0.85503199 0 0 Z " fill="#079CE9" transform="translate(497,232)"/>
<path d="M0 0 C3.3 0.99 6.6 1.98 10 3 C9.01 3.33 8.02 3.66 7 4 C7 4.66 7 5.32 7 6 C3.28139821 4.46126823 2.64366459 3.52488612 0 0 Z " fill="#2854CC" transform="translate(608,726)"/>
<path d="M0 0 C0.66 0 1.32 0 2 0 C1.67 3.3 1.34 6.6 1 10 C0.34 10 -0.32 10 -1 10 C-1.125 3.375 -1.125 3.375 0 0 Z " fill="#4B62D8" transform="translate(563,584)"/>
<path d="M0 0 C2 2 2 2 2.375 4 C2.684375 4.99 2.684375 4.99 3 6 C4.32 6.66 5.64 7.32 7 8 C3.7 8.33 0.4 8.66 -3 9 C-2.01 8.67 -1.02 8.34 0 8 C0 5.36 0 2.72 0 0 Z " fill="#36BA68" transform="translate(969,513)"/>
<path d="M0 0 C-0.33 0.99 -0.66 1.98 -1 3 C-5.32448133 3.73832608 -9.65535464 4.39174965 -14 5 C-11.56585763 3.37723842 -9.68680554 2.38255208 -7 1.375 C-6.319375 1.11460937 -5.63875 0.85421875 -4.9375 0.5859375 C-3 0 -3 0 0 0 Z " fill="#FBC447" transform="translate(1106,510)"/>
<path d="M0 0 C0.66 0.66 1.32 1.32 2 2 C0.92643323 3.15498897 -0.15929788 4.29867867 -1.25 5.4375 C-1.85328125 6.07558594 -2.4565625 6.71367187 -3.078125 7.37109375 C-5.10048016 9.08516306 -6.41270605 9.59358878 -9 10 C-8.2575 9.278125 -7.515 8.55625 -6.75 7.8125 C-4.30709485 5.31407427 -2.1318953 2.76356798 0 0 Z " fill="#1365D5" transform="translate(539,466)"/>
<path d="M0 0 C10.55808656 -0.3690205 10.55808656 -0.3690205 15 2 C11.58860997 3.09651823 8.79344419 2.94215473 5.25 2.5625 C3.77273438 2.40974609 3.77273438 2.40974609 2.265625 2.25390625 C1.51796875 2.17011719 0.7703125 2.08632813 0 2 C0 1.34 0 0.68 0 0 Z " fill="#FDBC3B" transform="translate(774,414)"/>
<path d="M0 0 C0.33 0 0.66 0 1 0 C1.37211538 7.56634615 1.37211538 7.56634615 -0.51171875 9.76171875 C-1.00285156 10.17035156 -1.49398437 10.57898438 -2 11 C-1.85957123 9.35369672 -1.71250671 7.70795821 -1.5625 6.0625 C-1.48128906 5.14597656 -1.40007813 4.22945313 -1.31640625 3.28515625 C-1 1 -1 1 0 0 Z " fill="#6AD174" transform="translate(945,382)"/>
<path d="M0 0 C0.66 0.33 1.32 0.66 2 1 C-1 4 -4 7 -7 10 C-6.84518205 7.29068581 -6.51827919 5.53415961 -4.59765625 3.5546875 C-3.10228292 2.32320358 -1.5537076 1.1570163 0 0 Z " fill="#269DDD" transform="translate(532,297)"/>
<path d="M0 0 C-2.42130331 2.42130331 -3.80111377 2.52840504 -7.125 3.125 C-8.49011719 3.37636719 -8.49011719 3.37636719 -9.8828125 3.6328125 C-10.58148437 3.75398437 -11.28015625 3.87515625 -12 4 C-12 3.34 -12 2.68 -12 2 C-7.82262526 0.40861915 -4.46839215 -0.21278058 0 0 Z " fill="#FDB734" transform="translate(819,664)"/>
<path d="M0 0 C1.41687119 4.25061356 0.19320039 6.71851625 -1 11 C-1.99 11 -2.98 11 -4 11 C-3.5247412 9.35303396 -3.04468109 7.70745272 -2.5625 6.0625 C-2.29566406 5.14597656 -2.02882813 4.22945313 -1.75390625 3.28515625 C-1 1 -1 1 0 0 Z " fill="#F9C760" transform="translate(398,423)"/>
<path d="M0 0 C0.66 0.33 1.32 0.66 2 1 C-0.64 3.64 -3.28 6.28 -6 9 C-6.99 8.67 -7.98 8.34 -9 8 C-6.03 5.36 -3.06 2.72 0 0 Z " fill="#209FE2" transform="translate(549,301)"/>
<path d="M0 0 C0.33 0 0.66 0 1 0 C0.45144652 4.571279 -0.41744803 8.67435795 -2 13 C-2.99 12.67 -3.98 12.34 -5 12 C-4.34 12 -3.68 12 -3 12 C-2.87625 10.7625 -2.7525 9.525 -2.625 8.25 C-2.24253695 5.1237803 -1.69450477 2.71120763 0 0 Z " fill="#5E65DF" transform="translate(542,579)"/>
<path d="M0 0 C-3.42094242 2.28062828 -4.68187222 2.21925007 -8.6875 2.125 C-10.17830078 2.09792969 -10.17830078 2.09792969 -11.69921875 2.0703125 C-12.45847656 2.04710937 -13.21773437 2.02390625 -14 2 C-14 1.67 -14 1.34 -14 1 C-12.41913952 0.63495397 -10.83516093 0.28339494 -9.25 -0.0625 C-8.36828125 -0.25972656 -7.4865625 -0.45695313 -6.578125 -0.66015625 C-4.01320972 -0.99825872 -2.42908361 -0.81158635 0 0 Z " fill="#FDC851" transform="translate(1023,536)"/>
<path d="M0 0 C0.66 0.33 1.32 0.66 2 1 C1.2575 1.8971875 1.2575 1.8971875 0.5 2.8125 C-1.28276418 4.97029994 -1.28276418 4.97029994 -1 8 C-2.65 7.67 -4.3 7.34 -6 7 C-4.02 4.69 -2.04 2.38 0 0 Z " fill="#FEF0DD" transform="translate(725,440)"/>
<path d="M0 0 C0.66 0 1.32 0 2 0 C1.67 2.64 1.34 5.28 1 8 C0.01 8 -0.98 8 -2 8 C-1.125 1.125 -1.125 1.125 0 0 Z " fill="#FCC248" transform="translate(394,434)"/>
<path d="M0 0 C0.33 0 0.66 0 1 0 C1.2475 1.258125 1.495 2.51625 1.75 3.8125 C2.48837994 6.83557727 2.79382006 7.8059483 5.125 10 C5.74375 10.33 6.3625 10.66 7 11 C1.125 10.125 1.125 10.125 0 9 C-0.07179964 7.48071962 -0.08392007 5.95832518 -0.0625 4.4375 C-0.05347656 3.61121094 -0.04445313 2.78492188 -0.03515625 1.93359375 C-0.02355469 1.29550781 -0.01195312 0.65742187 0 0 Z " fill="#3763D7" transform="translate(561,612)"/>
<path d="M0 0 C-3.18762365 2.12508244 -5.26512223 2.5020163 -9 3 C-9.33 2.01 -9.66 1.02 -10 0 C-3.375 -1.125 -3.375 -1.125 0 0 Z " fill="#FDC33B" transform="translate(1033,534)"/>
<path d="M0 0 C0.33 0.99 0.66 1.98 1 3 C-1.91765 4.9451 -3.62537285 5.45276317 -7 6 C-7 5.34 -7 4.68 -7 4 C-2.52941176 0 -2.52941176 0 0 0 Z " fill="#1493E8" transform="translate(1000,426)"/>
<path d="M0 0 C0.33 0 0.66 0 1 0 C1 2.97 1 5.94 1 9 C1.66 9 2.32 9 3 9 C2.34 10.65 1.68 12.3 1 14 C0.67 14 0.34 14 0 14 C0 9.38 0 4.76 0 0 Z " fill="#1493E7" transform="translate(1059,415)"/>
<path d="M0 0 C0.33 0.99 0.66 1.98 1 3 C-1.31 5.31 -3.62 7.62 -6 10 C-6 6.41087588 -5.33563446 5.89142971 -3 3.3125 C-2.443125 2.68988281 -1.88625 2.06726563 -1.3125 1.42578125 C-0.879375 0.95527344 -0.44625 0.48476563 0 0 Z " fill="#2272E1" transform="translate(841,783)"/>
<path d="M0 0 C-2.75924185 1.80411967 -3.88972103 2.0127245 -7.25 1.625 C-8.1575 1.41875 -9.065 1.2125 -10 1 C-10 0.67 -10 0.34 -10 0 C-6.33694766 -0.74926071 -3.57644848 -1.2380014 0 0 Z M-10 2 C-7 3 -7 3 -7 3 Z " fill="#FDBD3D" transform="translate(801,662)"/>
<path d="M0 0 C4.29 0.66 8.58 1.32 13 2 C9 4 9 4 6.640625 3.5390625 C5.85171875 3.23742187 5.0628125 2.93578125 4.25 2.625 C3.45078125 2.32851563 2.6515625 2.03203125 1.828125 1.7265625 C1.22484375 1.48679687 0.6215625 1.24703125 0 1 C0 0.67 0 0.34 0 0 Z " fill="#FDC03D" transform="translate(594,660)"/>
<path d="M0 0 C0.33 0 0.66 0 1 0 C1.34833144 4.87664009 0.41685712 7.77050005 -2 12 C-3.12377697 8.69564916 -2.89554742 6.9493138 -1.5625 3.75 C-1.27503906 3.04359375 -0.98757813 2.3371875 -0.69140625 1.609375 C-0.46324219 1.07828125 -0.23507812 0.5471875 0 0 Z " fill="#646EE3" transform="translate(549,558)"/>
<path d="M0 0 C0.66 0.33 1.32 0.66 2 1 C0.68 2.65 -0.64 4.3 -2 6 C-2.99 5.67 -3.98 5.34 -5 5 C-3.35 3.35 -1.7 1.7 0 0 Z " fill="#7D5BD3" transform="translate(581,506)"/>
<path d="M0 0 C-2.97 2.475 -2.97 2.475 -6 5 C-6 4.01 -6 3.02 -6 2 C-6.66 1.67 -7.32 1.34 -8 1 C-3.375 -1.125 -3.375 -1.125 0 0 Z " fill="#2EBCF2" transform="translate(562,328)"/>
<path d="M0 0 C0 0.33 0 0.66 0 1 C-1.45635371 1.22174933 -2.91522956 1.42698698 -4.375 1.625 C-5.18710938 1.74101563 -5.99921875 1.85703125 -6.8359375 1.9765625 C-7.55007813 1.98429688 -8.26421875 1.99203125 -9 2 C-9.66 1.34 -10.32 0.68 -11 0 C-7.01803543 -1.05404945 -4.01804691 -0.84098656 0 0 Z " fill="#FEEFC8" transform="translate(1036,543)"/>
<path d="M0 0 C3.08089673 2.77280706 4.68775452 5.06326356 6 9 C5.01 8.34 4.02 7.68 3 7 C3 6.34 3 5.68 3 5 C2.01 4.67 1.02 4.34 0 4 C-0.33 3.01 -0.66 2.02 -1 1 C-0.67 0.67 -0.34 0.34 0 0 Z " fill="#FDB03A" transform="translate(840,452)"/>
<path d="M0 0 C2.91517292 1.07401108 4.77810176 1.77810176 7 4 C6.67 4.99 6.34 5.98 6 7 C4.02 4.69 2.04 2.38 0 0 Z " fill="#2454C3" transform="translate(631,749)"/>
<path d="M0 0 C0.99 0 1.98 0 3 0 C3 1.65 3 3.3 3 5 C1.68 4.67 0.36 4.34 -1 4 C-0.67 2.68 -0.34 1.36 0 0 Z " fill="#426DDD" transform="translate(571,584)"/>
<path d="M0 0 C3.24208567 0.35049575 4.61527704 0.56221181 6.8125 3.0625 C7.204375 3.701875 7.59625 4.34125 8 5 C7.67 5.66 7.34 6.32 7 7 C5.83040013 6.02433888 4.66438823 5.044375 3.5 4.0625 C2.8503125 3.51722656 2.200625 2.97195313 1.53125 2.41015625 C1.0259375 1.94480469 0.520625 1.47945313 0 1 C0 0.67 0 0.34 0 0 Z " fill="#DAB3DB" transform="translate(655,502)"/>
<path d="M0 0 C0.33 0.66 0.66 1.32 1 2 C-0.65 2.33 -2.3 2.66 -4 3 C-4 2.34 -4 1.68 -4 1 C-5.32 0.67 -6.64 0.34 -8 0 C-4.97878489 -0.97110486 -2.99536737 -1.13617383 0 0 Z " fill="#FDE1B7" transform="translate(751,431)"/>
</svg>
